<svg width="32" height="20" viewBox="0 0 32 20" fill="none" xmlns="http://www.w3.org/2000/svg">
<path d="M31.1313 3.13838C31.1313 4.87178 29.7404 6.27677 28.0245 6.27677C26.3086 6.27677 24.9177 4.87178 24.9177 3.13838C24.9177 1.40499 26.309 0 28.0245 0C29.7404 0 31.1313 1.40499 31.1313 3.13838Z" fill="#B2B2B2"/>
<path d="M9.6728 9.04976C12.3476 8.38997 21.0976 7.82746 27.3213 9.4589C28.329 9.72315 30.7813 10.445 30.9891 12.0921C30.9891 12.0921 31.3281 13.3093 28.342 14.7538C25.3643 16.1945 22.8699 17.0497 20.8604 17.6522C18.9397 18.2279 15.4275 19.1833 14.2638 19.403C13.2801 19.5887 11.2096 20.0275 10.1329 19.9986C9.37293 19.9787 9.83514 19.5925 10.352 19.2896C11.292 18.7385 13.929 17.834 15.3093 17.3747C16.6896 16.9151 21.0636 15.3639 22.0073 15.0058C23.1332 14.5788 25.2411 13.6369 25.8619 13.2125C26.6017 12.7065 27.4643 11.9294 26.6113 11.4328C25.8627 10.9969 25.1406 10.9068 23.529 10.6799C21.9367 10.456 18.1751 10.309 17.1291 10.2997C16.0933 10.2903 13.8209 10.1973 13.1917 10.1888C12.7522 10.1828 9.56766 9.98954 9.13489 9.70616C8.83124 9.50733 8.8468 9.25369 9.6728 9.04976Z" fill="#B2B2B2"/>
<path d="M3.66327 11.5433H1.81486L0.200279 16.1577H1.95491L2.08781 15.5748H3.32807L3.49168 16.1577H5.24672L3.66327 11.5433ZM2.35277 14.4956L2.72329 12.9118L3.07026 14.4956H2.35277Z" fill="#B2B2B2"/>
<path d="M15.3081 11.5433H13.4597L11.8451 16.1577H13.5997L13.7326 15.5748H14.9729L15.1365 16.1577H16.8915L15.3081 11.5433ZM13.9976 14.4956L14.3681 12.9118L14.7151 14.4956H13.9976Z" fill="#B2B2B2"/>
<path d="M6.33685 16.1577V11.5433H7.91526L9.32502 13.9187V11.5433H10.9026V16.1577H9.32502L7.91526 13.7708V16.1577H6.33685Z" fill="#B2B2B2"/>
<path d="M0.0202637 17.4827H0.270504C0.270084 17.5252 0.278495 17.552 0.296159 17.5643C0.308356 17.5724 0.324758 17.577 0.344104 17.5783C0.363871 17.5796 0.425695 17.5809 0.529997 17.5817C0.639346 17.5813 0.704955 17.5804 0.726825 17.5796C0.748695 17.5783 0.766359 17.5753 0.778976 17.5698C0.797902 17.5617 0.807575 17.5405 0.807575 17.5052C0.807575 17.4797 0.800846 17.4628 0.787388 17.4543C0.773929 17.4458 0.746592 17.4411 0.704955 17.4402C0.672992 17.4402 0.6057 17.4377 0.50266 17.4326C0.397097 17.4275 0.328543 17.4245 0.29658 17.4237C0.234335 17.4215 0.18681 17.4156 0.153585 17.4058C0.12036 17.3961 0.0942844 17.3799 0.0757792 17.3578C0.0438157 17.3209 0.027834 17.2597 0.027834 17.1734C0.027834 17.077 0.0459186 17.0086 0.0825084 16.9691C0.110266 16.9381 0.152744 16.9185 0.210362 16.91C0.267981 16.9015 0.3849 16.8973 0.56112 16.8973C0.685609 16.8973 0.773088 16.9007 0.823977 16.9079C0.901783 16.9189 0.955196 16.9406 0.984215 16.9733C1.01323 17.006 1.02753 17.0613 1.02753 17.139C1.02753 17.1462 1.02711 17.1594 1.02669 17.1794H0.776453C0.775612 17.1556 0.773509 17.139 0.770565 17.1305C0.767621 17.1216 0.761312 17.1148 0.75206 17.1093C0.740704 17.1025 0.721358 17.0982 0.693179 17.0965C0.665001 17.0948 0.60528 17.0936 0.514436 17.0936C0.404667 17.0936 0.337796 17.097 0.313823 17.1038C0.289851 17.1106 0.277654 17.1297 0.277654 17.1611C0.277654 17.1913 0.289851 17.2095 0.313823 17.2163C0.33359 17.2219 0.424854 17.227 0.587616 17.2321C0.724722 17.2363 0.816407 17.241 0.86225 17.2469C0.908512 17.2525 0.945102 17.2635 0.972439 17.2792C1.00356 17.2979 1.02543 17.3238 1.03847 17.3565C1.05109 17.3893 1.05782 17.4364 1.05782 17.498C1.05782 17.5787 1.04688 17.6386 1.02543 17.6782C1.00945 17.707 0.986739 17.7287 0.95814 17.7427C0.929541 17.7572 0.888746 17.7665 0.836595 17.7716C0.780658 17.7767 0.676777 17.7793 0.524109 17.7793C0.396676 17.7793 0.302468 17.7759 0.241485 17.7695C0.180502 17.7627 0.13508 17.7508 0.104378 17.7338C0.0724146 17.7155 0.0505449 17.6913 0.0383483 17.6612C0.0265723 17.6301 0.0202637 17.5847 0.0202637 17.5231V17.4827Z" fill="#B2B2B2"/>
<path d="M1.7345 16.9099H2.67321V17.1113H1.98936V17.2349H2.63873V17.4231H1.98936V17.5604H2.67868V17.766H1.7345V16.9099Z" fill="#B2B2B2"/>
<path d="M3.86131 17.2809H4.45179C4.45263 17.2945 4.45305 17.3025 4.45305 17.3042C4.45305 17.4249 4.45011 17.5158 4.4438 17.577C4.43371 17.6756 4.37861 17.7355 4.27725 17.7563C4.23394 17.7652 4.18389 17.7711 4.12795 17.7741C4.07201 17.7775 3.98622 17.7788 3.8714 17.7788C3.72588 17.7788 3.62242 17.775 3.56228 17.7669C3.50172 17.7588 3.45419 17.7431 3.41887 17.7193C3.39489 17.7032 3.37639 17.6823 3.36377 17.6569C3.35073 17.6314 3.3419 17.5978 3.33685 17.5557C3.33181 17.5167 3.32928 17.4402 3.32928 17.325C3.32928 17.2469 3.33139 17.1878 3.33559 17.1483C3.3398 17.1088 3.34779 17.0731 3.35999 17.0417C3.38438 16.9754 3.43653 16.9355 3.51602 16.9214C3.60308 16.9061 3.7364 16.8981 3.9164 16.8981C4.02323 16.8981 4.10776 16.9006 4.16959 16.9061C4.23183 16.9117 4.28272 16.9206 4.3231 16.9329C4.38829 16.9533 4.4274 16.9979 4.44128 17.0659C4.44801 17.0999 4.45137 17.1466 4.45179 17.2057H4.19356C4.19314 17.1814 4.19188 17.1649 4.18935 17.1564C4.18683 17.1479 4.18178 17.1407 4.17379 17.1347C4.15949 17.1241 4.12921 17.1177 4.08295 17.1152C4.03963 17.1126 3.97655 17.1113 3.89411 17.1113C3.80453 17.1113 3.74102 17.1135 3.70275 17.1177C3.66448 17.122 3.63841 17.1296 3.62411 17.1411C3.60981 17.153 3.60055 17.1721 3.59551 17.1984C3.59046 17.2252 3.58794 17.2707 3.58794 17.3348C3.58794 17.407 3.59046 17.4576 3.59551 17.4865C3.60055 17.5154 3.60981 17.5354 3.62411 17.5472C3.63798 17.5583 3.65649 17.5651 3.6792 17.5676C3.70191 17.5698 3.77299 17.5719 3.89327 17.5736C4.01103 17.5727 4.08211 17.5715 4.10734 17.5702C4.13258 17.5689 4.15276 17.5647 4.16833 17.5587C4.18094 17.5532 4.18935 17.5443 4.19482 17.532C4.19987 17.5196 4.20281 17.5009 4.20281 17.4763C4.20281 17.4725 4.20281 17.4644 4.20239 17.4525H3.86257V17.2809H3.86131Z" fill="#B2B2B2"/>
<path d="M5.13818 16.9099H5.39641V17.3033C5.39767 17.3938 5.40061 17.4507 5.40566 17.4745C5.41239 17.5081 5.43384 17.5298 5.47001 17.5404C5.50618 17.551 5.57936 17.5561 5.68955 17.5561C5.77913 17.5561 5.84095 17.5536 5.87544 17.5485C5.90993 17.5434 5.93474 17.5327 5.94904 17.5175C5.95871 17.5068 5.96544 17.4932 5.96923 17.4779C5.97301 17.4626 5.97596 17.4359 5.97806 17.3981C5.98016 17.3598 5.981 17.328 5.981 17.3033V16.9099H6.23923V17.3033C6.23629 17.4401 6.23208 17.5293 6.2262 17.5718C6.21568 17.6436 6.18204 17.6963 6.12442 17.7299C6.09161 17.749 6.04535 17.7622 5.98605 17.769C5.92633 17.7758 5.82834 17.7787 5.69249 17.7787C5.59029 17.7787 5.51122 17.777 5.45571 17.7732C5.40019 17.7694 5.35183 17.7626 5.31103 17.7532C5.22019 17.7316 5.1672 17.6763 5.15206 17.5876C5.14617 17.5536 5.1428 17.523 5.14112 17.4954C5.13944 17.4677 5.1386 17.4036 5.13776 17.3033V16.9099H5.13818Z" fill="#B2B2B2"/>
<path d="M6.94205 17.7665V16.9104H7.56618C7.71254 16.9108 7.80044 16.9125 7.82946 16.9151C7.85848 16.9176 7.88624 16.9274 7.91316 16.9444C7.94554 16.9639 7.96741 16.9911 7.97961 17.0255C7.9918 17.0599 7.99769 17.1143 7.99769 17.1883C7.99769 17.2507 7.99391 17.2962 7.98634 17.3255C7.97877 17.3548 7.96447 17.3782 7.94302 17.3956C7.92031 17.4143 7.88582 17.4274 7.83998 17.4347C7.89423 17.4389 7.93292 17.4546 7.9569 17.4818C7.97035 17.498 7.97919 17.5179 7.98297 17.5413C7.98676 17.5642 7.98844 17.6131 7.98844 17.687V17.7669H7.73399V17.721C7.73399 17.6734 7.73231 17.6394 7.72852 17.6191C7.72516 17.5987 7.71843 17.5834 7.70918 17.5723C7.69951 17.5621 7.68647 17.5558 7.66964 17.5532C7.65282 17.5507 7.61791 17.549 7.5645 17.549H7.20071V17.7665H6.94205ZM7.20029 17.3348H7.56366C7.62717 17.3336 7.6646 17.3323 7.67679 17.3314C7.68899 17.3306 7.69951 17.3272 7.70834 17.3217C7.71969 17.3144 7.72726 17.3038 7.73189 17.2898C7.73652 17.2758 7.73862 17.2545 7.73862 17.2261C7.73862 17.198 7.73609 17.1772 7.73105 17.1632C7.726 17.1492 7.71675 17.1394 7.70413 17.133C7.69488 17.1288 7.68394 17.1262 7.67133 17.1254C7.65871 17.1245 7.62254 17.1237 7.56282 17.1233H7.20029V17.3348Z" fill="#B2B2B2"/>
<path d="M9.24258 16.8976C9.42553 16.8976 9.55128 16.9023 9.62025 16.9116C9.71909 16.9248 9.77965 16.9724 9.80236 17.0539C9.8175 17.11 9.82549 17.2048 9.82549 17.3382C9.82549 17.472 9.81792 17.5667 9.80236 17.6228C9.78007 17.7044 9.71951 17.752 9.62025 17.7651C9.5517 17.7745 9.42637 17.7787 9.2451 17.7787C9.06047 17.7787 8.93388 17.7741 8.86491 17.7651C8.76607 17.752 8.70551 17.7044 8.6828 17.6228C8.66766 17.5667 8.65967 17.4703 8.65967 17.3331C8.65967 17.2026 8.66724 17.1096 8.6828 17.0539C8.70509 16.9724 8.76565 16.9248 8.86491 16.9116C8.93346 16.9023 9.05921 16.8976 9.24258 16.8976ZM9.243 17.1202C9.10589 17.1202 9.02346 17.1236 8.99571 17.1308C8.96374 17.1393 8.94313 17.158 8.93304 17.1869C8.92295 17.2158 8.91832 17.2736 8.91832 17.3602C8.91832 17.4125 8.92084 17.4503 8.92631 17.4737C8.93682 17.517 8.96795 17.5421 9.0201 17.5485C9.05837 17.5536 9.13323 17.5561 9.24426 17.5561C9.34814 17.5561 9.41712 17.5544 9.45161 17.5506C9.48609 17.5468 9.51133 17.5383 9.52815 17.5255C9.54287 17.5136 9.55338 17.4966 9.55843 17.4737C9.5639 17.4507 9.56642 17.4134 9.56642 17.3615C9.56642 17.2999 9.56432 17.2549 9.56011 17.226C9.55591 17.1971 9.54834 17.1754 9.53782 17.1606C9.52394 17.1423 9.50165 17.1308 9.47011 17.1266C9.43899 17.1223 9.36328 17.1202 9.243 17.1202Z" fill="#B2B2B2"/>
<path d="M10.4845 17.4827H10.7348C10.7343 17.5251 10.7427 17.5519 10.7604 17.5642C10.773 17.5723 10.789 17.577 10.8084 17.5783C10.8281 17.5795 10.8899 17.5808 10.9942 17.5817C11.1036 17.5812 11.1692 17.5804 11.1911 17.5795C11.2129 17.5783 11.2302 17.5753 11.2432 17.5698C11.2622 17.5617 11.2718 17.5404 11.2718 17.5052C11.2718 17.4797 11.2651 17.4627 11.2516 17.4542C11.2382 17.4457 11.2108 17.441 11.1692 17.4402C11.1372 17.4402 11.07 17.4376 10.9669 17.4325C10.8613 17.4274 10.7928 17.4245 10.7608 17.4236C10.6986 17.4215 10.6511 17.4155 10.6178 17.4058C10.5846 17.396 10.5585 17.3798 10.54 17.3578C10.5081 17.3208 10.4921 17.2596 10.4921 17.1734C10.4921 17.0769 10.5102 17.0085 10.5468 16.969C10.5745 16.938 10.617 16.9185 10.6746 16.91C10.7322 16.9015 10.8492 16.8972 11.0254 16.8972C11.1499 16.8972 11.2373 16.9006 11.2882 16.9078C11.366 16.9189 11.4194 16.9406 11.4485 16.9733C11.4775 17.006 11.4918 17.0612 11.4918 17.139C11.4918 17.1462 11.4918 17.1593 11.4914 17.1793H11.2411C11.2403 17.1555 11.2382 17.139 11.2352 17.1305C11.2323 17.1215 11.226 17.1147 11.2167 17.1092C11.2054 17.1024 11.186 17.0982 11.1579 17.0965C11.1297 17.0948 11.07 17.0935 10.9791 17.0935C10.8693 17.0935 10.8025 17.0969 10.7785 17.1037C10.7545 17.1105 10.7423 17.1296 10.7423 17.161C10.7423 17.1912 10.7545 17.2095 10.7785 17.2163C10.7983 17.2218 10.8895 17.2269 11.0523 17.232C11.1894 17.2362 11.2811 17.2409 11.3269 17.2469C11.3732 17.2524 11.4098 17.2634 11.4371 17.2792C11.4682 17.2979 11.4901 17.3238 11.5031 17.3565C11.5158 17.3892 11.5225 17.4364 11.5225 17.498C11.5225 17.5787 11.5116 17.6386 11.4901 17.6781C11.4741 17.707 11.4514 17.7287 11.4228 17.7427C11.3942 17.7571 11.3534 17.7665 11.3013 17.7716C11.2453 17.7767 11.1414 17.7792 10.9888 17.7792C10.8613 17.7792 10.7671 17.7758 10.7062 17.7694C10.6452 17.7626 10.5998 17.7507 10.5691 17.7338C10.5371 17.7155 10.5152 17.6913 10.503 17.6611C10.4908 17.6309 10.4845 17.5851 10.4845 17.5239V17.4827Z" fill="#B2B2B2"/>
</svg>
