<svg width="116" height="25" viewBox="0 0 116 25" fill="none" xmlns="http://www.w3.org/2000/svg">
<path d="M10.6841 6.5291C11.3532 2.78161 9.43801 0 6.17997 0H0.253418V19.7065H7.79417C11.9584 19.7065 15.3349 16.3133 15.3349 12.1253C15.3349 9.55218 13.2638 7.58593 10.6841 6.5291ZM7.79417 17.4015H2.54762V2.30651H6.17997C7.76766 2.30651 9.12141 3.33668 9.61425 4.76668V4.76825C9.74214 5.14143 9.81232 5.54127 9.81232 5.95835C9.81232 6.38485 9.73902 6.79409 9.60489 7.17354C11.6074 7.91834 13.0407 9.85794 13.0407 12.1268C13.0407 15.0354 10.6873 17.4015 7.79417 17.4015Z" fill="white"/>
<path d="M7.02998 9.13978C6.89586 9.16644 6.75861 9.18839 6.62292 9.20094C6.07238 9.25581 5.52651 9.18996 5.01028 9.02218C4.15717 9.76698 3.68304 11.3052 3.68304 12.3902C4.95881 12.6693 6.46384 12.0625 7.58365 11.2064C8.70345 10.3518 9.21813 8.97514 9.29455 7.66431C9.29455 7.66431 9.29143 7.66431 9.28987 7.66431C8.70657 8.49848 8.02814 8.93595 7.02998 9.13978Z" fill="white"/>
<path d="M6.63228 8.42476C7.61796 8.29932 8.44456 7.74112 8.95143 6.96496C8.26832 6.34247 7.32943 6.00849 6.34375 6.13393C5.35807 6.25937 4.53147 6.81757 4.0246 7.59373C4.70771 8.21622 5.6466 8.5502 6.63228 8.42476Z" fill="white"/>
<path d="M23.9877 6.31274C22.0226 6.31274 20.4006 6.98541 19.1701 8.31193C18.0113 9.58357 17.4233 11.219 17.4233 13.1743C17.4233 15.1139 18.0378 16.7493 19.2496 18.0382C20.4973 19.3631 22.1349 20.0342 24.1172 20.0342C25.6768 20.0342 26.9728 19.6579 27.9694 18.9131C28.9613 18.1714 29.6975 17.1852 30.1529 15.9857L30.2137 15.8273H27.8431L27.8103 15.89C27.0726 17.3043 25.839 18.0225 24.1437 18.0225C22.8975 18.0225 21.8573 17.6289 21.0525 16.8528C20.2914 16.1205 19.8282 15.186 19.6738 14.0743H30.5521V13.1743C30.5521 11.219 29.9642 9.58357 28.8054 8.31193C27.5733 6.98384 25.9528 6.31274 23.9877 6.31274ZM23.9877 8.32291C25.1481 8.32291 26.1353 8.69138 26.9245 9.41579C27.6341 10.0806 28.0864 10.9524 28.2704 12.0108H19.705C19.889 10.954 20.3413 10.0806 21.051 9.41736C21.8386 8.69138 22.8274 8.32291 23.9877 8.32291Z" fill="white"/>
<path d="M37.951 6.74081C36.7532 7.29744 35.9016 8.12847 35.4119 9.21352V6.52129H33.23V19.8241H35.4119V13.9567C35.4119 12.4922 35.8236 11.2143 36.6346 10.1606C37.4909 9.063 38.6154 8.50636 39.9753 8.50636H40.3263V6.31274H40.0798C39.2517 6.31274 38.5358 6.457 37.951 6.74081Z" fill="white"/>
<path d="M47.4412 6.74081C46.2435 7.29744 45.3919 8.12847 44.9022 9.21352V6.52129H42.7203V19.8241H44.9022V13.9567C44.9022 12.4922 45.3139 11.2143 46.1249 10.1606C46.9811 9.063 48.1056 8.50636 49.4656 8.50636H49.815V6.31274H49.5686C48.742 6.31274 48.0245 6.457 47.4412 6.74081Z" fill="white"/>
<path d="M57.0843 17.0377L52.9763 6.52124H50.5651L55.9162 19.523L53.4972 25H55.86L63.6534 6.52124H61.2672L57.0843 17.0377Z" fill="white"/>
<path d="M73.6101 12.8434C72.9644 12.5722 72.2516 12.3589 71.4937 12.2099C70.7482 12.0641 70.0479 11.9026 69.4085 11.7286C68.7799 11.5577 68.2528 11.3381 67.841 11.0763C67.448 10.827 67.2577 10.4695 67.2577 9.98497C67.2577 8.79801 68.2013 8.21942 70.1446 8.21942C72.0957 8.21942 73.125 8.85288 73.2919 10.1575L73.3044 10.2594H75.5128L75.4972 10.1292C75.374 9.04104 74.9139 8.15356 74.131 7.4903C73.1936 6.70945 71.9007 6.31274 70.2865 6.31274C68.5865 6.31274 67.2827 6.65143 66.4078 7.31626C65.5235 7.99049 65.0743 8.94853 65.0743 10.1669C65.0743 10.9963 65.2989 11.6564 65.7434 12.13C66.1769 12.5925 66.729 12.9626 67.3825 13.2291C68.0282 13.4926 68.7394 13.7011 69.4974 13.8501C70.2491 13.999 70.9509 14.1637 71.581 14.344C72.208 14.5227 72.7336 14.7548 73.1469 15.0339C73.5414 15.3005 73.7333 15.6752 73.7333 16.1785C73.7333 16.9343 73.3496 17.4549 72.5604 17.7685C72.2064 17.9033 71.8383 17.999 71.4687 18.0491C71.096 18.1009 70.6858 18.126 70.2491 18.126C69.8202 18.126 69.3804 18.057 68.9468 17.9237C67.7521 17.5176 67.1143 16.7555 66.9973 15.5921L66.9864 15.487H64.7296L64.7359 15.6109C64.806 16.8763 65.3285 17.9159 66.2845 18.6983C67.3233 19.5842 68.7394 20.0326 70.4939 20.0326C72.1393 20.0326 73.465 19.6861 74.4335 19.004C75.4161 18.3141 75.9136 17.3012 75.9136 15.9951C75.9136 15.1499 75.689 14.4741 75.2461 13.9818C74.8172 13.502 74.2651 13.1194 73.6101 12.8434Z" fill="white"/>
<path d="M88.8413 8.39658C87.7776 7.01205 86.296 6.31116 84.4338 6.31116C82.45 6.31116 80.8373 6.98382 79.6411 8.31034C78.4823 9.61648 77.8959 11.2519 77.8959 13.1711C77.8959 15.0919 78.4823 16.7273 79.6411 18.0334C80.8373 19.36 82.4063 20.0326 84.3028 20.0326C86.2601 20.0326 87.7854 19.3411 88.8397 17.9754V19.8241H91.0216V6.52127H88.8397V8.39658H88.8413ZM84.5632 18.0225C83.2173 18.0225 82.1084 17.5427 81.2709 16.5987C80.4786 15.7018 80.0778 14.5494 80.0778 13.1742C80.0778 11.7991 80.4786 10.6466 81.2709 9.74975C82.11 8.80426 83.2173 8.32445 84.5632 8.32445C85.9248 8.32445 87.0134 8.80269 87.8026 9.74662C88.5605 10.6451 88.9458 11.7975 88.9458 13.1727C88.9458 14.5494 88.5621 15.7018 87.8026 16.6003C87.0134 17.5442 85.9248 18.0225 84.5632 18.0225Z" fill="white"/>
<path d="M96.8889 2.18267C96.0155 2.91649 95.5726 4.0282 95.5726 5.48643V6.51973H93.3377V8.47971H95.5726V19.8225H97.7545V8.47971H100.771V6.51973H97.7545V5.64479C97.7545 4.77769 97.9729 4.14266 98.4049 3.7585C98.84 3.37121 99.5091 3.17364 100.393 3.17364H100.771V1.08508H100.498C98.971 1.08508 97.7561 1.45356 96.8889 2.18267Z" fill="white"/>
<path d="M115.253 13.1727C115.253 11.2174 114.665 9.582 113.507 8.31036C112.276 6.98541 110.656 6.31274 108.691 6.31274C106.725 6.31274 105.105 6.98541 103.873 8.31193C102.714 9.58357 102.126 11.219 102.126 13.1743C102.126 15.1139 102.741 16.7493 103.952 18.0382C105.2 19.3631 106.838 20.0342 108.82 20.0342C110.38 20.0342 111.676 19.6579 112.672 18.9131C113.664 18.1714 114.4 17.1852 114.856 15.9857L114.917 15.8273H112.546L112.513 15.89C111.775 17.3043 110.542 18.0225 108.846 18.0225C107.6 18.0225 106.56 17.6289 105.755 16.8528C104.994 16.1189 104.531 15.1844 104.377 14.0743H115.255V13.1727H115.253ZM108.689 8.32291C109.849 8.32291 110.837 8.69138 111.626 9.41579C112.335 10.0806 112.788 10.9524 112.972 12.0108H104.406C104.59 10.9524 105.043 10.0806 105.752 9.41736C106.541 8.69138 107.529 8.32291 108.689 8.32291Z" fill="white"/>
</svg>
