<svg width="15" height="0" viewBox="0 0 15 13" fill="none" xmlns="http://www.w3.org/2000/svg">
<path d="M13.5567 4.3092L12.5991 1.4357C12.4602 1.01744 12.193 0.65359 11.8355 0.395856C11.478 0.138121 11.0483 -0.000390744 10.6076 8.27942e-07H4.22502C3.78429 -0.000390744 3.35465 0.138121 2.99714 0.395856C2.63963 0.65359 2.37243 1.01744 2.23352 1.4357L1.27592 4.3092C1.02155 4.41593 0.804315 4.59533 0.651412 4.82494C0.498509 5.05454 0.416733 5.32414 0.416321 5.6V9.1C0.416321 9.6271 0.712421 10.0814 1.14362 10.3201C1.13452 10.3663 1.11632 10.4083 1.11632 10.4566V11.9C1.11632 12.0857 1.19007 12.2637 1.32135 12.395C1.45262 12.5263 1.63067 12.6 1.81632 12.6H2.51632C2.70197 12.6 2.88002 12.5263 3.0113 12.395C3.14257 12.2637 3.21632 12.0857 3.21632 11.9V10.5H11.6163V11.9C11.6163 12.0857 11.6901 12.2637 11.8213 12.395C11.9526 12.5263 12.1307 12.6 12.3163 12.6H13.0163C13.202 12.6 13.38 12.5263 13.5113 12.395C13.6426 12.2637 13.7163 12.0857 13.7163 11.9V10.4566C13.7163 10.4083 13.6981 10.3656 13.689 10.3201C13.9084 10.2005 14.0916 10.0242 14.2196 9.80954C14.3475 9.59491 14.4155 9.34987 14.4163 9.1V5.6C14.4163 5.0197 14.0607 4.5213 13.5567 4.3092ZM1.81632 9.1V5.6H13.0163L13.0177 9.1H1.81632ZM4.22502 1.4H10.6069C10.9086 1.4 11.176 1.5918 11.2712 1.8788L12.0454 4.2H2.78722L3.56072 1.8788C3.60717 1.73936 3.69632 1.61807 3.81556 1.53213C3.93479 1.44619 4.07805 1.39997 4.22502 1.4Z" fill="#35D8D0"/>
<path d="M3.56633 8.39999C4.14623 8.39999 4.61633 7.92989 4.61633 7.34999C4.61633 6.77009 4.14623 6.29999 3.56633 6.29999C2.98643 6.29999 2.51633 6.77009 2.51633 7.34999C2.51633 7.92989 2.98643 8.39999 3.56633 8.39999Z" fill="#35D8D0"/>
<path d="M11.2663 8.39999C11.8462 8.39999 12.3163 7.92989 12.3163 7.34999C12.3163 6.77009 11.8462 6.29999 11.2663 6.29999C10.6864 6.29999 10.2163 6.77009 10.2163 7.34999C10.2163 7.92989 10.6864 8.39999 11.2663 8.39999Z" fill="#35D8D0"/>
</svg>
