<svg width="21" height="20" viewBox="0 0 21 20" fill="none" xmlns="http://www.w3.org/2000/svg">
<path d="M0.885876 15.918C0.955306 16.2196 1.10282 16.4976 1.31361 16.7242C1.52441 16.9508 1.79108 17.118 2.08688 17.209L2.26688 18H2.25188V20H18.2519V18H4.93488C4.948 17.9076 4.94564 17.8136 4.92788 17.722L4.73188 16.859L15.0889 14.503L15.2849 15.366C15.3371 15.595 15.4781 15.7938 15.6768 15.9189C15.8756 16.044 16.1159 16.085 16.3449 16.033L17.2079 15.836C17.3213 15.8103 17.4286 15.7624 17.5235 15.6952C17.6184 15.628 17.6992 15.5427 17.7611 15.4443C17.8231 15.3458 17.865 15.2361 17.8845 15.1215C17.904 15.0068 17.9008 14.8894 17.8749 14.776L17.6239 13.673C18.0699 13.257 18.2939 12.627 18.1489 11.99L17.5589 9.4C17.4873 9.08797 17.3319 8.80137 17.1096 8.57107C16.8872 8.34076 16.6062 8.17548 16.2969 8.093L14.2479 4.715C13.9457 4.21869 13.4953 3.82979 12.9603 3.60318C12.4253 3.37657 11.8326 3.32369 11.2659 3.452L3.39788 5.242C2.83056 5.37051 2.31812 5.67442 1.93327 6.11061C1.54843 6.54679 1.31072 7.09309 1.25388 7.672L0.866876 11.604C0.624145 11.8124 0.442815 12.0831 0.342383 12.3868C0.241952 12.6906 0.226219 13.016 0.296876 13.328L0.885876 15.918ZM3.90588 15.23C3.73588 15.2687 3.55992 15.2736 3.38804 15.2444C3.21616 15.2151 3.05172 15.1523 2.90412 15.0594C2.75652 14.9666 2.62865 14.8457 2.52781 14.7034C2.42696 14.5612 2.35512 14.4005 2.31638 14.2305C2.27764 14.0605 2.27276 13.8845 2.30202 13.7127C2.33129 13.5408 2.39412 13.3763 2.48693 13.2287C2.57974 13.0811 2.70072 12.9533 2.84295 12.8524C2.98518 12.7516 3.14588 12.6797 3.31588 12.641C3.6592 12.5628 4.01954 12.6241 4.31763 12.8116C4.61572 12.999 4.82714 13.2972 4.90538 13.6405C4.98361 13.9838 4.92227 14.3442 4.73482 14.6423C4.54738 14.9403 4.2492 15.1518 3.90588 15.23ZM15.1279 12.678C14.955 12.7255 14.7742 12.7375 14.5966 12.7133C14.4189 12.6891 14.248 12.6292 14.0941 12.5371C13.9402 12.445 13.8066 12.3228 13.7012 12.1777C13.5959 12.0326 13.521 11.8676 13.4811 11.6928C13.4413 11.518 13.4372 11.3369 13.4692 11.1604C13.5012 10.984 13.5686 10.8159 13.6674 10.6662C13.7661 10.5165 13.8942 10.3884 14.0438 10.2895C14.1934 10.1907 14.3615 10.1231 14.5379 10.091C14.8744 10.0297 15.2217 10.1006 15.5072 10.289C15.7927 10.4774 15.9946 10.7687 16.0706 11.1022C16.1467 11.4357 16.0911 11.7857 15.9155 12.0793C15.7399 12.3729 15.4577 12.5873 15.1279 12.678ZM3.84088 7.192L11.7099 5.401C11.8676 5.36537 12.0324 5.38008 12.1813 5.44304C12.3302 5.506 12.4556 5.61405 12.5399 5.752L14.1249 8.365L13.5589 8.494L3.51288 10.781L2.94488 10.91L3.24388 7.868C3.25997 7.70697 3.32627 7.55506 3.4334 7.43376C3.54053 7.31245 3.68307 7.22788 3.84088 7.192ZM16.6569 2L15.2519 0L14.7519 3L17.2519 7L20.2519 8L18.2519 5.461L20.2519 4.528L18.2519 3.595L20.2519 0L16.6569 2Z" fill="#5D30DD"/>
</svg>
