<svg width="21" height="20" viewBox="0 0 21 20" fill="none" xmlns="http://www.w3.org/2000/svg">
<path d="M19.0254 11.155L17.6574 7.051C17.459 6.45348 17.0773 5.9337 16.5665 5.56551C16.0558 5.19731 15.442 4.99944 14.8124 5H5.69442C5.06481 4.99944 4.45103 5.19731 3.9403 5.56551C3.42957 5.9337 3.04787 6.45348 2.84942 7.051L1.48142 11.155C1.11772 11.3073 0.80713 11.5637 0.588652 11.892C0.370175 12.2202 0.253549 12.6057 0.253418 13V16C0.253418 16.738 0.657418 17.376 1.25342 17.723V19C1.25342 19.2652 1.35877 19.5196 1.54631 19.7071C1.73385 19.8946 1.9882 20 2.25342 20H3.25342C3.51863 20 3.77299 19.8946 3.96052 19.7071C4.14806 19.5196 4.25342 19.2652 4.25342 19V18H16.2534V19C16.2534 19.2652 16.3588 19.5196 16.5463 19.7071C16.7338 19.8946 16.9882 20 17.2534 20H18.2534C18.5186 20 18.773 19.8946 18.9605 19.7071C19.1481 19.5196 19.2534 19.2652 19.2534 19V17.723C19.5568 17.549 19.809 17.2981 19.9845 16.9956C20.1601 16.6932 20.2528 16.3497 20.2534 16V13C20.2534 12.169 19.7464 11.458 19.0254 11.155ZM5.69442 7H14.8114C15.0214 6.99995 15.226 7.06599 15.3964 7.18876C15.5667 7.31153 15.6941 7.48479 15.7604 7.684L16.8664 11H3.64042L4.74542 7.684C4.88242 7.275 5.26442 7 5.69442 7ZM3.75342 16C3.55637 15.9999 3.36126 15.9611 3.17924 15.8856C2.99722 15.8101 2.83184 15.6995 2.69255 15.5602C2.41125 15.2787 2.25329 14.897 2.25342 14.499C2.25355 14.101 2.41177 13.7194 2.69326 13.4381C2.97475 13.1568 3.35646 12.9989 3.75442 12.999C4.15238 12.9991 4.53398 13.1573 4.81529 13.4388C5.09659 13.7203 5.25455 14.102 5.25442 14.5C5.25429 14.898 5.09607 15.2796 4.81458 15.5609C4.53309 15.8422 4.15138 16.0001 3.75342 16ZM16.7534 16C16.3555 15.9999 15.9739 15.8417 15.6926 15.5602C15.4112 15.2787 15.2533 14.897 15.2534 14.499C15.2536 14.101 15.4118 13.7194 15.6933 13.4381C15.9748 13.1568 16.3565 12.9989 16.7544 12.999C17.1524 12.9991 17.534 13.1573 17.8153 13.4388C18.0966 13.7203 18.2546 14.102 18.2544 14.5C18.2543 14.898 18.0961 15.2796 17.8146 15.5609C17.5331 15.8422 17.1514 16.0001 16.7534 16ZM3.53042 3C3.87742 3.595 4.51542 4 5.25342 4C5.99142 4 6.62942 3.595 6.97642 3H13.5314C13.8774 3.595 14.5154 4 15.2534 4C15.9914 4 16.6294 3.595 16.9764 3H15.2534V1H16.9764C16.6294 0.405 15.9914 0 15.2534 0C14.5154 0 13.8774 0.405 13.5304 1H6.97642C6.62942 0.405 5.99142 0 5.25342 0C4.51542 0 3.87742 0.405 3.53042 1H5.25342V3H3.53042Z" fill="#5D30DD"/>
</svg>
