<svg width="19" height="22" viewBox="0 0 19 22" fill="none" xmlns="http://www.w3.org/2000/svg">
<path d="M16.1734 1.01C15.9734 0.42 15.4134 0 14.7534 0H3.75342C3.09342 0 2.54342 0.42 2.33342 1.01L0.253418 7V15C0.253418 15.55 0.703418 16 1.25342 16H2.25342C2.80342 16 3.25342 15.55 3.25342 15V14H15.2534V15C15.2534 15.55 15.7034 16 16.2534 16H17.2534C17.8034 16 18.2534 15.55 18.2534 15V7L16.1734 1.01ZM3.75342 11C2.92342 11 2.25342 10.33 2.25342 9.5C2.25342 8.67 2.92342 8 3.75342 8C4.58342 8 5.25342 8.67 5.25342 9.5C5.25342 10.33 4.58342 11 3.75342 11ZM14.7534 11C13.9234 11 13.2534 10.33 13.2534 9.5C13.2534 8.67 13.9234 8 14.7534 8C15.5834 8 16.2534 8.67 16.2534 9.5C16.2534 10.33 15.5834 11 14.7534 11ZM2.25342 6L3.75342 1.5H14.7534L16.2534 6H2.25342ZM4.25342 19H8.25342V17L14.2534 20H10.2534V22L4.25342 19Z" fill="#5D30DD"/>
</svg>
