<svg width="53" height="20" viewBox="0 0 53 20" fill="none" xmlns="http://www.w3.org/2000/svg">
<path d="M23.674 9.55876C23.674 9.00657 23.7717 8.80914 23.158 8.48049L22.7338 8.2703V7.88881H26.9653V8.2703L26.5344 8.441C25.8942 8.70404 25.8942 8.77633 25.9074 9.55876L25.9141 12.7073L25.7572 12.8586C25.0191 13.0493 23.295 13.5226 21.741 13.5226C18.1757 13.5226 16.419 11.6619 16.419 7.63913C16.419 3.31328 18.9005 1.43982 22.1593 1.43982C23.0343 1.43982 24.6214 1.43982 25.7246 2.37959C26.0903 2.68879 26.1229 3.03688 26.1229 3.17478C26.1229 3.43781 26.0704 3.49006 26.0185 3.59515L25.2285 5.13997H24.9346C24.9346 4.37758 24.053 2.34618 21.761 2.34618C19.1033 2.34618 18.9723 4.21296 18.9723 7.3688C18.9723 10.1298 19.2596 12.615 22.4332 12.615C23.4585 12.615 23.648 12.0695 23.674 11.4583C23.674 11.4583 23.674 9.86736 23.674 9.55876Z" fill="#B2B2B2"/>
<path d="M28.0232 12.9114L28.7806 12.6022C29.401 12.3592 29.401 11.9054 29.401 10.8994V3.6486C29.401 3.08972 29.2441 2.81392 28.8132 2.51808L28.121 2.05154V1.67004H31.2621L31.4516 1.7885C31.7974 2.25504 32.5161 3.5107 33.4822 4.82589L36.8128 9.38804C36.9498 9.57879 37.0216 9.66384 37.0868 9.66384C37.2238 9.66384 37.2238 9.49314 37.2238 9.17725V3.66196C37.2238 2.86677 37.2105 2.70883 36.5382 2.43243L35.5522 2.05093V1.66943H39.5031V2.05093L39.0004 2.24168C38.2624 2.53752 38.1187 2.70822 38.1187 3.8521V10.6893C38.1187 11.7347 38.138 12.793 38.138 13.1544L38.0204 13.2923H37.0536L36.8641 13.1544C36.7072 12.9637 35.8129 11.6952 34.8986 10.4657L30.8638 5.03547C30.6417 4.73963 30.5373 4.58168 30.4522 4.58168C30.2953 4.58168 30.2953 4.75906 30.2953 5.00206V11.208C30.2953 12.0427 30.2953 12.3058 31.0201 12.5494L32.0387 12.9108V13.2923H28.0226V12.9114H28.0232Z" fill="#B2B2B2"/>
<path d="M40.5157 12.9114L41.273 12.6551C41.8415 12.4643 41.8608 12.149 41.8608 11.0574V3.55687C41.8608 2.72827 41.8608 2.51808 41.273 2.32733L40.5157 2.05093V1.66943H46.23C48.2287 1.66943 50.1875 2.10317 50.1875 4.73963C50.1875 7.15253 48.3983 8.64449 45.603 8.64449C45.4853 8.64449 45.329 8.62505 45.224 8.62505L44.9693 8.00057L45.1063 7.86267C46.3603 7.82986 47.8817 7.31047 47.6662 4.87145C47.4967 2.97126 46.9475 2.61649 45.4002 2.61649C44.3489 2.61649 44.2765 2.77444 44.2765 3.20817V11.0574C44.2765 12.2207 44.2572 12.4643 44.9494 12.6551L45.8444 12.9114V13.2929H40.5157V12.9114Z" fill="#B2B2B2"/>
<path d="M52.7379 15.0934H16.4185V14.8504H52.7379V15.0934Z" fill="#B2B2B2"/>
<path d="M9.32642 7.42222C9.32642 8.49381 8.46405 9.36129 7.39349 9.36129C6.32897 9.36129 5.46721 8.4932 5.46721 7.42222C5.46721 6.35063 6.32897 5.48254 7.39349 5.48254C8.46405 5.48254 9.32642 6.35063 9.32642 7.42222Z" fill="#B2B2B2"/>
<path d="M4.18664 4.18127H0.0202637L0.862712 6.77824H2.93926V6.77155C5.04237 6.77155 6.74658 5.05604 6.75321 2.9323V0.848646L4.18664 0V4.18127Z" fill="#B2B2B2"/>
<path d="M4.17398 10.6564V14.8437L6.75383 14.0023V11.912H6.74719C6.74719 9.79495 5.04298 8.07944 2.93324 8.07275H0.86333L0.0202789 10.6564H4.17398Z" fill="#B2B2B2"/>
<path d="M10.6064 10.663H14.7728L13.9237 8.07275H11.8538H11.8472C9.74465 8.07944 8.03984 9.79495 8.03984 11.912V11.9187V13.9963L10.6064 14.8443V10.663Z" fill="#B2B2B2"/>
<path d="M10.613 4.19406V0.00671387L8.03984 0.84807V2.9384C8.04648 5.05546 9.75069 6.77098 11.8538 6.77766H11.8604H13.9243L14.7734 4.19406H10.613Z" fill="#B2B2B2"/>
<path d="M51.788 1.86079C52.1862 1.86079 52.5127 2.18275 52.5127 2.64322C52.5127 3.09701 52.1862 3.42565 51.788 3.42565V3.60972C52.3166 3.60972 52.7481 3.17598 52.7481 2.64322C52.7481 2.10439 52.3172 1.67004 51.788 1.67004V1.86079ZM51.788 2.78719V2.55757H51.7946C51.9183 2.55757 52.0167 2.53813 52.0167 2.39355C52.0167 2.26172 51.899 2.24229 51.8012 2.24229H51.7886V2.08434H51.8211C52.0824 2.08434 52.2261 2.17607 52.2261 2.4063C52.2261 2.59705 52.115 2.68878 51.9388 2.70215L52.2327 3.18874H52.0239L51.788 2.78719ZM51.788 3.42504C51.383 3.42504 51.0566 3.0964 51.0566 2.64261C51.0566 2.18214 51.383 1.86018 51.788 1.86018V1.66943C51.2521 1.66943 50.8212 2.10317 50.8212 2.64261C50.8212 3.17537 51.2521 3.60911 51.788 3.60911V3.42504ZM51.788 2.08373V2.24168H51.6184V2.55696H51.788V2.78719L51.7421 2.7149H51.6184V3.18813H51.4156V2.08373H51.788Z" fill="#B2B2B2"/>
<path d="M17.2941 19.9997C16.8862 19.9997 16.6333 19.8836 16.5398 19.8302C16.4553 19.7318 16.398 19.4104 16.398 19.1067C16.4288 19.0483 16.5313 19.0441 16.5663 19.0933C16.6551 19.3837 16.9526 19.7943 17.3297 19.7943C17.658 19.7943 17.8089 19.5665 17.8089 19.343C17.8089 18.9815 17.4716 18.7671 17.2054 18.6328C16.8862 18.4719 16.5356 18.204 16.5356 17.7617C16.5313 17.2569 16.9218 16.9088 17.5651 16.9088C17.7117 16.9088 17.8934 16.9264 18.0708 16.9805C18.1287 16.9987 18.1686 17.0072 18.2217 17.0163C18.2573 17.1147 18.3013 17.3559 18.3013 17.6548C18.279 17.7083 18.168 17.7131 18.1281 17.6682C18.0527 17.4404 17.862 17.1141 17.5428 17.1141C17.2501 17.1141 17.0902 17.3061 17.0902 17.5297C17.0902 17.735 17.2718 17.9227 17.4939 18.0387L17.7866 18.1948C18.0618 18.3425 18.4124 18.6012 18.4124 19.0927C18.4124 19.6425 17.964 19.9997 17.2941 19.9997Z" fill="#B2B2B2"/>
<path d="M22.0326 18.1417C22.0326 18.2669 22.0369 18.276 22.1569 18.276H22.4629C22.6934 18.276 22.7471 18.245 22.7912 18.0306L22.8135 17.9188C22.8443 17.8829 22.9553 17.8829 22.9777 17.923C22.9686 18.0658 22.9644 18.2268 22.9644 18.3963C22.9644 18.5657 22.9686 18.7267 22.9777 18.8695C22.9553 18.9096 22.8443 18.9144 22.8135 18.8737L22.7912 18.762C22.7471 18.5475 22.6934 18.5117 22.4629 18.5117H22.1569C22.0369 18.5117 22.0326 18.5159 22.0326 18.6502V19.1817C22.0326 19.3871 22.0501 19.5304 22.1038 19.6057C22.1618 19.6859 22.2457 19.7218 22.5697 19.7218C22.9559 19.7218 23.1068 19.7084 23.3506 19.2036C23.3862 19.1544 23.4973 19.172 23.5148 19.2261C23.4973 19.4581 23.3904 19.8202 23.3283 19.9405C23.0929 19.9314 22.6675 19.9271 22.3036 19.9271H21.7267C21.5136 19.9271 21.2964 19.9314 20.9633 19.9405C20.9277 19.9137 20.9277 19.8062 20.9633 19.7843L21.1721 19.7534C21.3718 19.7218 21.3984 19.6957 21.3984 19.2844V17.6187C21.3984 17.2123 21.3718 17.1856 21.1721 17.1455L21.061 17.123C21.0212 17.0963 21.0254 16.9936 21.0701 16.9669C21.2789 16.976 21.4961 16.9802 21.7092 16.9802H22.65C22.9342 16.9802 23.1871 16.976 23.2444 16.9669C23.2486 17.0385 23.28 17.3599 23.3017 17.6594C23.2842 17.7086 23.1822 17.7177 23.1376 17.677C23.0887 17.5209 23.0265 17.3866 22.9692 17.3241C22.8847 17.239 22.752 17.1856 22.5347 17.1856H22.1799C22.0332 17.1856 22.0332 17.1947 22.0332 17.3599V18.1417H22.0326Z" fill="#B2B2B2"/>
<path d="M28.8163 19.4235C28.8163 19.6112 28.8253 19.7005 28.9092 19.7181C28.9273 19.7358 28.9225 19.8117 28.8959 19.8251C28.8205 19.8384 28.7052 19.8518 28.5858 19.8919C28.4307 19.9411 28.0487 19.9988 27.8006 19.9988C27.4989 19.9988 27.2418 19.9672 26.9268 19.8427C26.4078 19.6325 26.053 19.1368 26.053 18.4941C26.053 17.9358 26.3016 17.4444 26.8339 17.1449C27.1356 16.9796 27.4953 16.908 27.8724 16.908C28.3649 16.908 28.6093 17.0149 28.7511 17.0149C28.7644 17.1491 28.7686 17.4614 28.8133 17.7341C28.7958 17.7833 28.6757 17.7876 28.6449 17.7432C28.5031 17.3235 28.2237 17.1133 27.8109 17.1133C27.1054 17.1133 26.7639 17.7025 26.7639 18.4084C26.7639 19.0469 26.9811 19.4266 27.2696 19.6234C27.4826 19.7661 27.7131 19.7929 27.8773 19.7929C28.1301 19.7929 28.1832 19.7437 28.1832 19.4533V19.172C28.1832 18.9309 28.1567 18.9041 27.9437 18.8725L27.7487 18.8458C27.6999 18.8191 27.6999 18.7164 27.7487 18.6897C28.0637 18.6988 28.281 18.7031 28.4989 18.7031C28.7119 18.7031 28.9291 18.6988 29.08 18.6897C29.1156 18.7164 29.1156 18.8191 29.08 18.8458L28.978 18.8634C28.8446 18.8859 28.8181 18.9303 28.8181 19.1714V19.4235H28.8163Z" fill="#B2B2B2"/>
<path d="M31.9664 17.6241C31.9664 17.2086 31.9398 17.1819 31.7401 17.1418L31.629 17.1193C31.5934 17.0926 31.5892 16.9942 31.6381 16.9675C31.8511 16.9766 32.0732 16.9808 32.2856 16.9808C32.5028 16.9808 32.7207 16.9766 32.9331 16.9675C32.9687 16.9942 32.9687 17.0926 32.9331 17.1193L32.8269 17.137C32.6272 17.1728 32.6006 17.2086 32.6006 17.6235V18.655C32.6006 19.1775 32.6585 19.754 33.3326 19.754C33.9005 19.754 34.0737 19.254 34.0737 18.6417V18.101C34.0737 17.7396 34.0562 17.4 34.0073 17.284C33.9675 17.1904 33.8697 17.1637 33.7496 17.1412L33.6301 17.1187C33.5945 17.0829 33.6036 16.9936 33.6301 16.9669C33.8697 16.976 34.0429 16.9802 34.2245 16.9802C34.3887 16.9802 34.5528 16.976 34.7218 16.9669C34.7484 16.9936 34.7574 17.0829 34.7218 17.1187L34.6415 17.1363C34.5263 17.1631 34.4418 17.1898 34.402 17.284C34.3531 17.4 34.3356 17.7396 34.3356 18.101V18.601C34.3356 19.0207 34.2958 19.4047 34.0513 19.6774C33.8564 19.8876 33.5324 19.9988 33.1727 19.9988C32.8354 19.9988 32.5336 19.9453 32.294 19.7485C32.0635 19.5565 31.9658 19.2261 31.9658 18.7389V17.6241H31.9664Z" fill="#B2B2B2"/>
<path d="M37.6234 17.7044C37.6234 17.2579 37.6143 17.2087 37.4278 17.182L37.3083 17.1644C37.2637 17.1419 37.2637 17.0301 37.3174 17.0082C37.6499 16.9858 37.9963 16.9681 38.4175 16.9681C38.7947 16.9681 39.1188 17.0265 39.2871 17.1291C39.5442 17.281 39.6776 17.5045 39.6776 17.7901C39.6776 18.1873 39.4114 18.3574 39.2075 18.4601C39.1634 18.4826 39.1634 18.5093 39.1851 18.5585C39.4778 19.1569 39.6601 19.4922 39.8725 19.6751C39.9878 19.7686 40.103 19.7953 40.17 19.8002C40.2098 19.8227 40.2098 19.8895 40.1875 19.9162C40.1163 19.9472 39.9745 19.9563 39.8369 19.9563C39.4283 19.9563 39.1713 19.8087 38.9757 19.4873C38.8339 19.2504 38.7319 19.0317 38.6299 18.7948C38.5768 18.6745 38.5056 18.6387 38.3946 18.6387C38.2395 18.6387 38.2304 18.6478 38.2304 18.7371V19.2863C38.2304 19.6975 38.257 19.7285 38.4567 19.7644L38.5768 19.7868C38.6082 19.8093 38.6082 19.9162 38.5768 19.943C38.3415 19.9338 38.1375 19.9296 37.9245 19.9296C37.7024 19.9296 37.5075 19.9338 37.277 19.943C37.2414 19.9162 37.2414 19.8087 37.277 19.7868L37.3964 19.7644C37.5962 19.7285 37.6228 19.6975 37.6228 19.2863V17.7044H37.6234ZM38.2317 18.2718C38.2317 18.4279 38.2449 18.4413 38.5068 18.4413C38.6668 18.4413 38.7597 18.4012 38.8442 18.3161C38.9196 18.2402 39.0041 18.0974 39.0041 17.8338C39.0041 17.4316 38.7687 17.1729 38.423 17.1729C38.2413 17.1729 38.2323 17.1862 38.2323 17.4007V18.2718H38.2317Z" fill="#B2B2B2"/>
<path d="M45.6007 18.4413C45.6007 19.4151 44.9531 20.0001 43.9991 20.0001C43.1071 20.0001 42.4596 19.4102 42.4596 18.4771C42.4596 17.5927 43.1162 16.9092 44.0437 16.9092C44.9664 16.9092 45.6007 17.5343 45.6007 18.4413ZM44.0081 17.1146C43.4626 17.1146 43.1699 17.6279 43.1699 18.3739C43.1699 18.9188 43.3606 19.7942 44.0835 19.7942C44.6647 19.7942 44.891 19.2225 44.891 18.499C44.891 17.7354 44.5585 17.1146 44.0081 17.1146Z" fill="#B2B2B2"/>
<path d="M49.128 20.0001C48.7201 20.0001 48.4672 19.8841 48.3737 19.8306C48.2892 19.7322 48.2319 19.4108 48.2319 19.1071C48.2632 19.0488 48.3652 19.0445 48.4002 19.0937C48.4889 19.3841 48.7865 19.7948 49.163 19.7948C49.4913 19.7948 49.6422 19.567 49.6422 19.3434C49.6422 18.982 49.3048 18.7675 49.0387 18.6333C48.7195 18.4723 48.3688 18.2044 48.3688 17.7621C48.3646 17.2573 48.7551 16.9092 49.3984 16.9092C49.545 16.9092 49.7267 16.9269 49.9041 16.9809C49.9614 16.9991 50.0018 17.0077 50.055 17.0168C50.0906 17.1152 50.1346 17.3563 50.1346 17.6552C50.1123 17.7087 50.0012 17.7135 49.9614 17.6686C49.886 17.4408 49.6953 17.1146 49.376 17.1146C49.0834 17.1146 48.9234 17.3065 48.9234 17.5301C48.9234 17.7354 49.1051 17.9231 49.3272 18.0391L49.6199 18.1953C49.895 18.3429 50.2457 18.6017 50.2457 19.0931C50.2463 19.6429 49.7979 20.0001 49.128 20.0001Z" fill="#B2B2B2"/>
</svg>
