<svg width="28" height="20" viewBox="0 0 28 20" fill="none" xmlns="http://www.w3.org/2000/svg">
<path fill-rule="evenodd" clip-rule="evenodd" d="M0.399246 9.91223H3.67862V0.0223389H0.399246V9.91223Z" fill="#B2B2B2"/>
<path fill-rule="evenodd" clip-rule="evenodd" d="M6.97778 9.88989H10.277V0H6.97778V9.88989Z" fill="#B2B2B2"/>
<path fill-rule="evenodd" clip-rule="evenodd" d="M16.0902 9.86762H12.791V0H16.9225C25.1605 0.415687 23.1493 10.3056 16.0902 9.86762Z" fill="#B2B2B2"/>
<path fill-rule="evenodd" clip-rule="evenodd" d="M15.959 7.40071V2.35803C19.7858 1.87801 20.1127 7.66299 15.959 7.40071Z" fill="white"/>
<path fill-rule="evenodd" clip-rule="evenodd" d="M24.2862 9.91218H27.5854V0.0445557H24.2862V9.91218Z" fill="#B2B2B2"/>
<path fill-rule="evenodd" clip-rule="evenodd" d="M3.67865 6.68057H6.97784V3.38477H3.67865V6.68057Z" fill="#B2B2B2"/>
<path d="M2.46246 14.5539C2.30889 14.4673 2.01167 14.3436 1.62032 14.3436C1.05807 14.3436 0.82277 14.6702 0.82277 14.9746C0.82277 15.3754 1.08779 15.5733 1.68967 15.8331C2.45007 16.1672 2.81665 16.5804 2.81665 17.2311C2.81665 18.0229 2.22963 18.6168 1.16458 18.6168C0.718741 18.6168 0.248136 18.4881 0.0202637 18.3322L0.18126 17.7334C0.433901 17.8868 0.817816 18.0106 1.20916 18.0106C1.77141 18.0106 2.08845 17.7211 2.08845 17.293C2.08845 16.8922 1.84819 16.6447 1.28347 16.4097C0.57756 16.1251 0.102 15.6995 0.102 15.0562C0.102 14.309 0.701403 13.7448 1.64261 13.7448C2.0934 13.7448 2.43521 13.8562 2.63832 13.9601L2.46246 14.5539Z" fill="#B2B2B2"/>
<path d="M6.86137 18.4116C6.62112 18.5229 6.24216 18.6145 5.77898 18.6145C4.75108 18.6145 4.15911 17.9291 4.15911 16.8899C4.15911 15.8754 4.72879 15.0663 5.69229 15.0663C6.65084 15.0663 7.03475 15.863 7.03475 16.7043C7.03475 16.8206 7.0298 16.9196 7.01494 17.0062H4.85015C4.86749 17.7732 5.34553 18.0627 5.88301 18.0627C6.25949 18.0627 6.51956 17.9959 6.74248 17.9019L6.86137 18.4116ZM6.35361 16.4964C6.35857 16.0882 6.19262 15.5809 5.64275 15.5809C5.11766 15.5809 4.89474 16.1006 4.85758 16.4964H6.35361Z" fill="#B2B2B2"/>
<path d="M11.3965 15.143C11.3792 15.383 11.3668 15.6675 11.3668 16.1253V18.0652C11.3668 18.7456 11.3098 20.0001 9.6974 20.0001C9.3011 20.0001 8.88747 19.9135 8.61997 19.7527L8.78096 19.1959C8.9915 19.3197 9.31844 19.4359 9.70236 19.4359C10.2597 19.4359 10.656 19.1267 10.656 18.3547V18.0281H10.6436C10.4702 18.3176 10.1358 18.5279 9.6974 18.5279C8.89242 18.5279 8.34256 17.8177 8.34256 16.8651C8.34256 15.7096 9.04103 15.0663 9.78409 15.0663C10.2919 15.0663 10.5767 15.3261 10.7179 15.5983H10.7303L10.76 15.1405H11.3965V15.143ZM10.6485 16.4593C10.6485 16.009 10.3513 15.6379 9.91289 15.6379C9.41752 15.6379 9.07076 16.108 9.07076 16.8379C9.07076 17.506 9.37293 17.981 9.90546 17.981C10.277 17.981 10.6485 17.6965 10.6485 17.1274V16.4593Z" fill="#B2B2B2"/>
<path d="M15.8772 17.5702C15.8772 17.9538 15.897 18.2754 15.9094 18.5476H15.2778L15.2406 18.0527H15.2208C15.0796 18.2878 14.7452 18.6144 14.1929 18.6144C13.6059 18.6144 13.0907 18.2507 13.0907 17.162V15.1355H13.809V17.0457C13.809 17.6321 13.9749 18.023 14.4455 18.023C14.7725 18.023 15.1564 17.7632 15.1564 17.251V15.1429H15.8747V17.5702H15.8772Z" fill="#B2B2B2"/>
<path d="M19.3349 15.7714C19.273 15.759 19.2061 15.7516 19.1244 15.7516C18.6414 15.7516 18.3392 16.1475 18.3392 16.7413V18.5451H17.6209V16.1772C17.6209 15.7813 17.6135 15.4547 17.5961 15.138H18.2203L18.2451 15.7615H18.2699C18.4259 15.3285 18.7826 15.0637 19.1541 15.0637C19.2234 15.0637 19.2705 15.0687 19.3324 15.0835V15.7714H19.3349Z" fill="#B2B2B2"/>
<path d="M23.6545 16.8156C23.6545 18.0899 22.8248 18.6145 22.0594 18.6145C21.1752 18.6145 20.5015 17.9662 20.5015 16.8651C20.5015 15.7146 21.2074 15.0663 22.109 15.0663C23.0428 15.0688 23.6545 15.7715 23.6545 16.8156ZM22.0842 15.6057C21.4724 15.6057 21.2371 16.2614 21.2371 16.8478C21.2371 17.5159 21.5517 18.0775 22.0793 18.0775C22.5994 18.0775 22.9214 17.5159 22.9214 16.8354C22.9189 16.2738 22.6836 15.6057 22.0842 15.6057Z" fill="#B2B2B2"/>
<path d="M26.8844 15.7838C26.7482 15.6972 26.5129 15.5933 26.2355 15.5933C25.9135 15.5933 25.7401 15.7789 25.7401 16.0065C25.7401 16.2416 25.8961 16.3579 26.3098 16.5385C26.872 16.7661 27.1692 17.0754 27.1692 17.5703C27.1692 18.226 26.6689 18.6145 25.8937 18.6145C25.5345 18.6145 25.1952 18.5204 24.9648 18.3868L25.1258 17.8549C25.2992 17.9588 25.6138 18.0825 25.906 18.0825C26.29 18.0825 26.4757 17.8969 26.4757 17.6371C26.4757 17.3773 26.3345 17.2363 25.9259 17.0631C25.319 16.8231 25.054 16.4816 25.054 16.0857C25.054 15.5166 25.5172 15.0663 26.2355 15.0663C26.5698 15.0663 26.8596 15.1578 27.0454 15.2642L26.8844 15.7838Z" fill="#B2B2B2"/>
</svg>
