<svg width="37" height="53" viewBox="0 0 37 53" fill="none" xmlns="http://www.w3.org/2000/svg">
<path d="M18.755 0.594116C8.75676 0.594116 0.670349 8.68053 0.670349 18.6787C0.670349 32.2422 18.755 52.2645 18.755 52.2645C18.755 52.2645 36.8396 32.2422 36.8396 18.6787C36.8396 8.68053 28.7532 0.594116 18.755 0.594116ZM18.755 25.1375C17.042 25.1375 15.3992 24.4571 14.1879 23.2458C12.9767 22.0345 12.2962 20.3917 12.2962 18.6787C12.2962 16.9658 12.9767 15.3229 14.1879 14.1117C15.3992 12.9004 17.042 12.2199 18.755 12.2199C20.468 12.2199 22.1108 12.9004 23.322 14.1117C24.5333 15.3229 25.2138 16.9658 25.2138 18.6787C25.2138 20.3917 24.5333 22.0345 23.322 23.2458C22.1108 24.4571 20.468 25.1375 18.755 25.1375Z" fill="#4B3A7C"/>
</svg>
