<svg width="94" height="20" viewBox="0 0 94 20" fill="none" xmlns="http://www.w3.org/2000/svg">
<path fill-rule="evenodd" clip-rule="evenodd" d="M7.59398 20.0004H1.0622C0.488696 20.0004 0.0202637 19.5319 0.0202637 18.9582V1.03248C0.0202637 0.299682 0.555823 -0.122185 1.26212 0.0325485C4.69437 0.782859 8.32947 3.09948 10.9212 6.50507C8.24629 10.0187 6.68193 14.6899 7.59398 20.0004Z" fill="#9A9A9A"/>
<path fill-rule="evenodd" clip-rule="evenodd" d="M14.2469 19.9998H20.7787C21.3522 19.9998 21.8206 19.5312 21.8206 18.9576V1.03186C21.8206 0.299072 21.285 -0.122795 20.5787 0.0319381C17.1465 0.782248 13.5128 3.09887 10.9211 6.50446C13.5946 10.0181 15.1589 14.6893 14.2469 19.9998Z" fill="#9E9E9E"/>
<path fill-rule="evenodd" clip-rule="evenodd" d="M7.59402 19.9998H14.2469C15.159 14.6892 13.5946 10.018 10.9197 6.50439C8.24632 10.018 6.68196 14.6892 7.59402 19.9998Z" fill="#747474"/>
<path fill-rule="evenodd" clip-rule="evenodd" d="M71.3314 14.3973H65.6227V3.60242H62.6267V14.3958V15.3476V16.8467H71.3314V14.3973ZM35.4679 9.80927L38.8695 3.60242H41.6888L42.3309 16.8467H39.3L38.9643 8.27361L36.2457 13.355H34.6302L31.7554 8.27361L31.4198 16.8467H28.4925L29.1345 3.60242H32.0064L35.4679 9.80927ZM48.2717 7.19048C51.326 7.19048 52.886 9.42973 52.886 12.0865V13.0032H51.5609H51.0152H46.29C46.29 13.9827 47.2677 14.933 48.6876 14.933C50.1994 14.933 50.9349 14.3973 51.5989 14.0206L52.7196 15.8088C51.4062 16.8453 49.7543 17.1635 48.6891 17.1635C45.5224 17.1635 43.5275 15.1782 43.5275 12.085C43.5275 9.69541 45.1955 7.19048 48.2717 7.19048ZM50.2534 11.1683C50.2534 10.1888 49.3662 9.3947 48.2717 9.3947C47.1772 9.3947 46.29 10.1888 46.29 11.1683H50.2534ZM88.7378 7.19048C91.7921 7.19048 93.3521 9.42973 93.3521 12.0865V13.0032H92.0271H91.4813H86.7561C86.7561 13.9827 87.7338 14.933 89.1537 14.933C90.6656 14.933 91.401 14.3973 92.065 14.0206L93.1858 15.8088C91.8724 16.8453 90.2205 17.1635 89.1552 17.1635C85.9885 17.1635 83.9937 15.1782 83.9937 12.085C83.9937 9.69541 85.6616 7.19048 88.7378 7.19048ZM90.7196 11.1683C90.7196 10.1888 89.8323 9.3947 88.7378 9.3947C87.6434 9.3947 86.7561 10.1888 86.7561 11.1683H90.7196ZM55.0866 12.9229V13.6148C55.0866 15.4176 55.8965 17.1649 58.6531 17.1649C59.8643 17.1649 60.7778 16.6949 61.5381 16.0979L60.3896 14.3184C60.1284 14.6031 59.5272 14.8585 59.0223 14.8585C58.4152 14.8585 57.941 14.3987 57.941 13.5652V12.9244V9.75964H60.3444V7.49119H57.941V5.03151H55.0866V7.49119H53.5689V9.75964H55.0866V12.9229ZM78.3973 7.49119H76.8796V9.75964H78.3973V16.8482H81.2517V9.75964H83.4377V7.49119H81.2517V7.00655C81.2517 5.93802 81.9872 5.53221 82.5928 5.53221C83.0977 5.53221 83.6653 5.73511 83.9265 6.01976L85.1013 4.20092C84.341 3.60388 83.4362 3.25062 82.225 3.25062C79.877 3.25062 78.3988 4.81839 78.3988 7.00655V7.49119H78.3973ZM73.9932 6.45915C73.0986 6.45915 72.3733 5.73365 72.3733 4.83883C72.3733 3.944 73.0986 3.21851 73.9932 3.21851C74.8877 3.21851 75.613 3.944 75.613 4.83883C75.613 5.73365 74.8877 6.45915 73.9932 6.45915ZM72.566 7.49119H75.4203V16.8467H72.566V7.49119Z" fill="#B2B2B2"/>
</svg>
