<svg width="14" height="17" viewBox="0 0 14 17" fill="none" xmlns="http://www.w3.org/2000/svg">
<path fill-rule="evenodd" clip-rule="evenodd" d="M6.88087 1.5322C6.89415 1.54612 6.9224 1.53223 6.93001 1.51456C6.93109 1.51206 6.93201 1.50928 6.93273 1.50624C6.93529 1.49541 6.93245 1.48414 6.9284 1.47377C6.71501 0.927132 6.46039 0.52014 5.982 0.266611C5.25089 -0.127007 4.81089 0.0113869 4.67069 0.0835304C4.6402 0.0992222 4.60017 0.118559 4.60017 0.152851C4.60017 0.195494 4.66054 0.202246 4.70074 0.216455C5.12415 0.366085 6.16614 0.788282 6.88065 1.53196C6.8808 1.53211 6.88073 1.53204 6.88087 1.5322ZM7.01511 3.21428C7.03666 3.19939 7.00321 3.16003 6.98088 3.14633C6.37959 2.7774 5.21066 2.25149 4.17086 1.94457C2.92318 1.57485 1.91699 1.38999 1.2462 1.48953C0.655896 1.58907 0.360745 1.87347 0.280249 1.97301C0.266833 1.98723 0.253418 2.00145 0.253418 2.01567C0.253418 2.04411 0.28025 2.05833 0.293666 2.05833L0.521736 2.07255C1.01812 2.11521 1.91699 2.12943 2.96343 2.28585C4.16133 2.46925 6.0723 2.83461 6.98014 3.2014C6.99463 3.20725 7.00225 3.22317 7.01511 3.21428ZM7.0676 2.5933C7.08587 2.60605 7.10274 2.62001 7.11384 2.60069C7.12513 2.58107 7.11532 2.54613 7.10175 2.52801C6.92615 2.29351 6.65228 2.03372 6.30398 1.77393C5.94175 1.50375 5.52587 1.23357 5.08314 1.02027C4.61358 0.77853 4.19769 0.59367 3.76838 0.465691C3.28541 0.337711 2.86952 0.280832 2.5207 0.323492C2.23897 0.351933 2.0109 0.451469 1.83649 0.59367C1.82308 0.607889 1.82308 0.622112 1.82308 0.636332C1.82308 0.679169 1.88461 0.68257 1.92681 0.689922C2.98872 0.874969 3.96085 1.15491 4.86849 1.48953C5.75259 1.82521 6.5069 2.20215 7.0676 2.5933ZM11.8427 7.21621C11.8618 7.22828 11.8811 7.24268 11.8886 7.22132C11.8957 7.20092 11.8776 7.1709 11.8615 7.15652C11.3881 6.73365 9.46509 5.02863 8.41028 4.12023L8.37003 4.09179C8.06147 3.85005 7.86023 3.79317 7.81998 4.33353C7.80672 4.46007 7.79345 4.5727 7.79315 4.57523C7.79314 4.57531 7.79314 4.57532 7.79313 4.57539C7.77975 4.68903 7.80658 4.68904 7.84681 4.71747C8.19562 4.94499 8.853 5.32893 9.38964 5.67021C10.3215 6.24058 11.3946 6.93344 11.8427 7.21621ZM10.4092 4.90233C10.4539 4.90233 10.4207 4.82655 10.3923 4.79207C9.909 4.20508 8.41477 2.45992 7.72607 1.68861C7.65038 1.59234 7.66772 1.78835 7.70627 1.9046C7.74896 2.03333 7.80359 2.21322 7.8334 2.37117C7.87365 2.54181 7.90048 2.66979 7.99439 2.75511C8.91481 3.57518 9.79545 4.39524 10.3857 4.8938C10.3923 4.89939 10.4006 4.90233 10.4092 4.90233ZM12.31 8.1184C12.3398 8.12638 12.3948 8.14695 12.3948 8.11605C12.3948 8.07847 12.3679 8.06404 12.3347 8.04649C11.9579 7.84751 9.6956 6.85385 8.4866 6.32125C7.98038 6.09825 7.28753 5.72919 7.01503 6.21057C6.93453 6.35277 6.85404 6.48075 6.82721 6.53763C6.77868 6.6405 6.94896 6.66698 7.05839 6.698C7.43241 6.80401 8.38231 7.07213 9.24207 7.30551C10.4837 7.62082 11.875 8.00221 12.31 8.1184ZM12.8241 8.81283C12.8375 8.81283 12.8509 8.79861 12.8509 8.77017C12.8509 8.74168 12.8117 8.73961 12.7836 8.73521C12.2034 8.64452 7.19446 7.92506 6.40761 7.8056C6.33662 7.79482 6.26846 7.77477 6.19666 7.77477C6.16983 7.77477 6.12958 7.77477 6.08933 7.77477C5.79418 7.80321 5.51245 7.95963 5.25755 8.24403C5.14194 8.36657 5.04625 8.56302 4.99625 8.6696C4.98265 8.69859 4.95384 8.73266 4.97581 8.75595C4.98923 8.77017 5.00265 8.78439 5.01606 8.78439C5.01606 8.78439 5.01606 8.78439 5.01606 8.78439C5.01606 8.78439 7.08211 8.78439 8.37003 8.78439C9.33598 8.78439 10.369 8.78439 11.2142 8.78439C11.9655 8.79861 12.5424 8.79861 12.8241 8.81283ZM13.178 9.3912C13.2144 9.38406 13.2534 9.37604 13.2534 9.33897C13.2534 9.32475 13.24 9.31053 13.2132 9.31053C12.3998 9.37487 5.70912 9.87004 4.44394 9.96364C4.30613 9.97383 4.16392 9.96759 4.0367 10.0215C3.41575 10.2272 3.04429 10.7238 2.88622 11.2307C2.8746 11.268 2.84272 11.3156 2.86952 11.344C2.89824 11.3744 2.93763 11.3696 2.97872 11.3617C3.74322 11.2143 12.1587 9.59118 13.178 9.3912ZM11.482 11.0909C11.5265 11.0609 11.5567 10.9776 11.5094 11.0027C11.1605 11.1876 10.3824 11.5857 9.59088 11.9981C8.92008 12.3536 4.3721 14.6288 4.06353 14.7852L3.51348 15.0839C3.43298 15.1265 3.3659 15.1692 3.28541 15.2261C3.07075 15.3683 2.96343 15.4678 2.84269 15.6242C2.74877 15.7522 2.66828 15.9228 2.61461 16.065C2.48045 16.4063 2.49387 16.8614 2.49387 16.9467C2.49387 16.9609 2.50729 16.9751 2.5207 16.9893C2.53412 17.0036 2.54754 17.0036 2.57437 16.9893L3.13784 16.6196L3.4464 16.4205L5.10997 15.3398C7.39928 13.8423 10.5432 11.7228 11.482 11.0909ZM12.5064 10.0654C12.5323 10.0543 12.5692 10.0498 12.5692 10.0215C12.5692 9.98523 12.5115 9.99902 12.4769 10.0102C12.2052 10.0985 11.6939 10.2475 11.0532 10.4339C9.51322 10.8664 3.80214 12.4897 3.49813 12.5778C3.48786 12.5807 3.48189 12.5837 3.47245 12.5887C3.46404 12.5931 3.45525 12.5968 3.44622 12.5998C3.10333 12.7139 2.81288 12.8973 2.58778 13.1499C2.5207 13.221 2.46704 13.3064 2.41338 13.3917C2.23617 13.6797 2.1838 14.0669 2.16466 14.2136C2.16069 14.244 2.15084 14.2794 2.17189 14.3018C2.19794 14.3294 2.24361 14.3085 2.27871 14.2941L3.1915 13.9178C5.4594 12.99 11.4115 10.5336 12.5064 10.0654Z" fill="#00ABC3"/>
</svg>
