<svg width="20" height="13" viewBox="0 0 20 13" fill="none" xmlns="http://www.w3.org/2000/svg">
<path d="M19.2535 2.38299C19.2535 3.42304 18.4189 4.26603 17.3894 4.26603C16.3598 4.26603 15.5253 3.42304 15.5253 2.38299C15.5253 1.34294 16.3601 0.499939 17.3894 0.499939C18.4189 0.499939 19.2535 1.34294 19.2535 2.38299Z" fill="#DB2455"/>
<path d="M6.37823 5.92986C7.98315 5.53398 13.2332 5.19647 16.9674 6.17534C17.572 6.3339 19.0435 6.767 19.1681 7.7553C19.1681 7.7553 19.3715 8.48563 17.5799 9.35234C15.7932 10.2168 14.2966 10.7299 13.0909 11.0914C11.9384 11.4368 9.83108 12.0101 9.13284 12.1419C8.5426 12.2533 7.3003 12.5166 6.6543 12.4993C6.19831 12.4873 6.47564 12.2556 6.78577 12.0738C7.34976 11.7432 8.93197 11.2005 9.76017 10.9249C10.5884 10.6491 13.2128 9.71839 13.779 9.5035C14.4546 9.24731 15.7193 8.68217 16.0918 8.42751C16.5357 8.12391 17.0532 7.65767 16.5415 7.35967C16.0923 7.09813 15.659 7.04409 14.692 6.90797C13.7366 6.77363 11.4797 6.68543 10.8521 6.67982C10.2305 6.67421 8.86712 6.61838 8.48961 6.61329C8.22591 6.60972 6.31515 6.49373 6.05548 6.3237C5.87329 6.2044 5.88263 6.05222 6.37823 5.92986Z" fill="#DB2455"/>
<path d="M2.77249 7.4259H1.66343L0.694672 10.1945H1.74746L1.8272 9.84478H2.57137L2.66953 10.1945H3.72257L2.77249 7.4259ZM1.98618 9.1973L2.20849 8.24698L2.41668 9.1973H1.98618Z" fill="#DB2455"/>
<path d="M9.75946 7.4259H8.6504L7.68164 10.1945H8.73443L8.81417 9.84478H9.55834L9.6565 10.1945H10.7095L9.75946 7.4259ZM8.97315 9.1973L9.19547 8.24698L9.40365 9.1973H8.97315Z" fill="#DB2455"/>
<path d="M4.37665 10.1945V7.4259H5.3237L6.16956 8.85113V7.4259H7.11611V10.1945H6.16956L5.3237 8.76242V10.1945H4.37665Z" fill="#DB2455"/>
<path d="M0.58667 10.9896H0.736816C0.736563 11.0151 0.74161 11.0312 0.752209 11.0386C0.759527 11.0434 0.769368 11.0462 0.780976 11.047C0.792837 11.0478 0.829931 11.0485 0.892513 11.049C0.958123 11.0488 0.997489 11.0483 1.01061 11.0478C1.02373 11.047 1.03433 11.0452 1.0419 11.0419C1.05326 11.0371 1.05906 11.0243 1.05906 11.0031C1.05906 10.9879 1.05502 10.9777 1.04695 10.9726C1.03887 10.9675 1.02247 10.9647 0.997489 10.9641C0.978311 10.9641 0.937935 10.9626 0.876111 10.9596C0.812772 10.9565 0.771639 10.9547 0.752461 10.9542C0.715114 10.9529 0.686599 10.9494 0.666664 10.9435C0.646728 10.9376 0.631083 10.9279 0.61998 10.9147C0.600801 10.8925 0.591212 10.8558 0.591212 10.8041C0.591212 10.7462 0.602063 10.7052 0.624017 10.6814C0.640672 10.6628 0.666159 10.6511 0.70073 10.646C0.735302 10.6409 0.805454 10.6384 0.911187 10.6384C0.985881 10.6384 1.03837 10.6404 1.0689 10.6447C1.11559 10.6514 1.14763 10.6644 1.16505 10.684C1.18246 10.7036 1.19104 10.7368 1.19104 10.7834C1.19104 10.7877 1.19079 10.7956 1.19053 10.8076H1.04039C1.03988 10.7934 1.03862 10.7834 1.03685 10.7783C1.03509 10.773 1.0313 10.7689 1.02575 10.7656C1.01894 10.7615 1.00733 10.7589 0.990423 10.7579C0.973516 10.7569 0.937683 10.7561 0.883176 10.7561C0.817314 10.7561 0.777191 10.7582 0.762807 10.7623C0.748424 10.7663 0.741106 10.7778 0.741106 10.7967C0.741106 10.8148 0.748424 10.8257 0.762807 10.8298C0.774668 10.8331 0.829427 10.8362 0.927085 10.8392C1.00935 10.8418 1.06436 10.8446 1.09187 10.8482C1.11962 10.8515 1.14158 10.8581 1.15798 10.8675C1.17665 10.8788 1.18978 10.8943 1.1976 10.9139C1.20517 10.9336 1.20921 10.9619 1.20921 10.9988C1.20921 11.0472 1.20265 11.0832 1.18978 11.1069C1.18019 11.1242 1.16656 11.1372 1.1494 11.1456C1.13224 11.1543 1.10776 11.1599 1.07647 11.163C1.04291 11.166 0.980582 11.1676 0.88898 11.1676C0.812519 11.1676 0.755994 11.1655 0.719404 11.1617C0.682814 11.1576 0.65556 11.1505 0.637139 11.1403C0.617961 11.1293 0.604839 11.1148 0.597521 11.0967C0.590455 11.0781 0.58667 11.0508 0.58667 11.0139V10.9896Z" fill="#DB2455"/>
<path d="M1.6152 10.646H2.17844V10.7668H1.76813V10.841H2.15775V10.9539H1.76813V11.0363H2.18172V11.1596H1.6152V10.646Z" fill="#DB2455"/>
<path d="M2.89133 10.8685H3.24562C3.24613 10.8766 3.24638 10.8815 3.24638 10.8825C3.24638 10.9549 3.24461 11.0094 3.24083 11.0461C3.23477 11.1053 3.20172 11.1412 3.1409 11.1537C3.11491 11.1591 3.08488 11.1626 3.05132 11.1644C3.01776 11.1665 2.96628 11.1672 2.89739 11.1672C2.81008 11.1672 2.748 11.1649 2.71191 11.1601C2.67557 11.1553 2.64706 11.1458 2.62586 11.1315C2.61148 11.1219 2.60038 11.1094 2.59281 11.0941C2.58498 11.0788 2.57968 11.0586 2.57666 11.0334C2.57363 11.0099 2.57211 10.9641 2.57211 10.895C2.57211 10.8481 2.57337 10.8126 2.5759 10.7889C2.57842 10.7652 2.58322 10.7438 2.59053 10.725C2.60517 10.6852 2.63646 10.6612 2.68415 10.6528C2.73639 10.6436 2.81638 10.6388 2.92439 10.6388C2.98848 10.6388 3.03921 10.6403 3.0763 10.6436C3.11365 10.647 3.14418 10.6523 3.16841 10.6597C3.20752 10.6719 3.23099 10.6987 3.23932 10.7395C3.24335 10.7599 3.24537 10.7879 3.24562 10.8234H3.09068C3.09043 10.8088 3.08967 10.7989 3.08816 10.7938C3.08665 10.7887 3.08362 10.7844 3.07882 10.7808C3.07024 10.7744 3.05207 10.7706 3.02432 10.7691C2.99832 10.7675 2.96047 10.7668 2.91101 10.7668C2.85726 10.7668 2.81916 10.768 2.7962 10.7706C2.77323 10.7731 2.75759 10.7777 2.74901 10.7846C2.74043 10.7917 2.73488 10.8032 2.73185 10.819C2.72882 10.8351 2.72731 10.8624 2.72731 10.9008C2.72731 10.9442 2.72882 10.9745 2.73185 10.9919C2.73488 11.0092 2.74043 11.0212 2.74901 11.0283C2.75733 11.0349 2.76844 11.039 2.78206 11.0405C2.79569 11.0418 2.83834 11.0431 2.91051 11.0441C2.98117 11.0436 3.02381 11.0428 3.03895 11.0421C3.05409 11.0413 3.06621 11.0388 3.07554 11.0352C3.08311 11.0319 3.08816 11.0265 3.09144 11.0191C3.09447 11.0117 3.09623 11.0005 3.09623 10.9857C3.09623 10.9834 3.09624 10.9786 3.09598 10.9715H2.89209V10.8685H2.89133Z" fill="#DB2455"/>
<path d="M3.65745 10.646H3.81239V10.882C3.81315 10.9363 3.81491 10.9705 3.81794 10.9848C3.82198 11.0049 3.83485 11.0179 3.85655 11.0243C3.87825 11.0307 3.92216 11.0337 3.98827 11.0337C4.04202 11.0337 4.07912 11.0322 4.09981 11.0291C4.1205 11.0261 4.13539 11.0197 4.14397 11.0105C4.14977 11.0042 4.15381 10.996 4.15608 10.9868C4.15835 10.9776 4.16012 10.9616 4.16138 10.9389C4.16264 10.916 4.16315 10.8968 4.16315 10.882V10.646H4.31809V10.882C4.31632 10.9641 4.3138 11.0177 4.31027 11.0432C4.30396 11.0862 4.28377 11.1178 4.2492 11.138C4.22952 11.1495 4.20176 11.1574 4.16618 11.1614C4.13034 11.1655 4.07155 11.1673 3.99004 11.1673C3.92872 11.1673 3.88128 11.1663 3.84797 11.164C3.81466 11.1617 3.78564 11.1576 3.76116 11.152C3.70666 11.139 3.67486 11.1059 3.66578 11.0526C3.66224 11.0322 3.66022 11.0138 3.65921 10.9973C3.65821 10.9807 3.6577 10.9422 3.6572 10.882V10.646H3.65745Z" fill="#DB2455"/>
<path d="M4.73978 11.1599V10.6462H5.11426C5.20207 10.6465 5.25481 10.6475 5.27223 10.649C5.28964 10.6506 5.30629 10.6564 5.32244 10.6666C5.34187 10.6784 5.355 10.6947 5.36231 10.7153C5.36963 10.736 5.37316 10.7686 5.37316 10.813C5.37316 10.8504 5.37089 10.8777 5.36635 10.8953C5.36181 10.9129 5.35323 10.9269 5.34036 10.9374C5.32673 10.9486 5.30604 10.9565 5.27853 10.9608C5.31109 10.9634 5.3343 10.9728 5.34869 10.9891C5.35676 10.9988 5.36206 11.0108 5.36433 11.0248C5.3666 11.0386 5.36761 11.0679 5.36761 11.1122V11.1601H5.21494V11.1326C5.21494 11.1041 5.21393 11.0837 5.21166 11.0714C5.20964 11.0592 5.20561 11.05 5.20006 11.0434C5.19425 11.0373 5.18643 11.0335 5.17633 11.0319C5.16624 11.0304 5.1453 11.0294 5.11325 11.0294H4.89497V11.1599H4.73978ZM4.89472 10.9009H5.11274C5.15085 10.9001 5.17331 10.8994 5.18062 10.8989C5.18794 10.8983 5.19425 10.8963 5.19955 10.893C5.20636 10.8887 5.21091 10.8823 5.21368 10.8739C5.21646 10.8655 5.21772 10.8527 5.21772 10.8356C5.21772 10.8188 5.21621 10.8063 5.21318 10.7979C5.21015 10.7895 5.2046 10.7836 5.19703 10.7798C5.19148 10.7773 5.18491 10.7757 5.17734 10.7752C5.16977 10.7747 5.14807 10.7742 5.11224 10.774H4.89472V10.9009Z" fill="#DB2455"/>
<path d="M6.12011 10.6385C6.22988 10.6385 6.30533 10.6414 6.34671 10.647C6.40601 10.6549 6.44235 10.6834 6.45598 10.7324C6.46506 10.766 6.46986 10.8229 6.46986 10.9029C6.46986 10.9832 6.46532 11.04 6.45598 11.0737C6.4426 11.1226 6.40627 11.1512 6.34671 11.1591C6.30558 11.1647 6.23038 11.1672 6.12162 11.1672C6.01084 11.1672 5.93488 11.1644 5.8935 11.1591C5.8342 11.1512 5.79786 11.1226 5.78423 11.0737C5.77515 11.04 5.77036 10.9822 5.77036 10.8998C5.77036 10.8216 5.7749 10.7658 5.78423 10.7324C5.79761 10.6834 5.83395 10.6549 5.8935 10.647C5.93463 10.6414 6.01008 10.6385 6.12011 10.6385ZM6.12036 10.7721C6.03809 10.7721 5.98863 10.7742 5.97198 10.7785C5.9528 10.7836 5.94044 10.7948 5.93438 10.8121C5.92832 10.8295 5.92555 10.8641 5.92555 10.9162C5.92555 10.9475 5.92706 10.9702 5.93034 10.9842C5.93665 11.0102 5.95532 11.0253 5.98662 11.0291C6.00958 11.0321 6.0545 11.0337 6.12112 11.0337C6.18345 11.0337 6.22483 11.0326 6.24552 11.0304C6.26621 11.0281 6.28136 11.023 6.29145 11.0153C6.30028 11.0082 6.30659 10.998 6.30962 10.9842C6.3129 10.9704 6.31441 10.948 6.31441 10.9169C6.31441 10.88 6.31315 10.8529 6.31063 10.8356C6.3081 10.8183 6.30356 10.8053 6.29725 10.7963C6.28893 10.7854 6.27555 10.7785 6.25663 10.7759C6.23795 10.7734 6.19253 10.7721 6.12036 10.7721Z" fill="#DB2455"/>
<path d="M6.86526 10.9896H7.01541C7.01516 11.0151 7.0202 11.0311 7.0308 11.0385C7.03837 11.0434 7.04796 11.0462 7.05957 11.0469C7.07143 11.0477 7.10852 11.0485 7.17111 11.049C7.23672 11.0487 7.27608 11.0482 7.2892 11.0477C7.30232 11.0469 7.31267 11.0451 7.32049 11.0418C7.33185 11.037 7.33765 11.0242 7.33765 11.0031C7.33765 10.9878 7.33362 10.9776 7.32554 10.9725C7.31747 10.9674 7.30106 10.9646 7.27608 10.9641C7.2569 10.9641 7.21653 10.9626 7.1547 10.9595C7.09137 10.9564 7.05023 10.9547 7.03106 10.9541C6.99371 10.9529 6.96519 10.9493 6.94526 10.9434C6.92532 10.9376 6.90968 10.9279 6.89857 10.9146C6.8794 10.8925 6.86981 10.8557 6.86981 10.804C6.86981 10.7461 6.88066 10.7051 6.90261 10.6814C6.91927 10.6628 6.94475 10.6511 6.97932 10.646C7.0139 10.6409 7.08405 10.6383 7.18978 10.6383C7.26447 10.6383 7.31696 10.6403 7.34749 10.6447C7.39418 10.6513 7.42623 10.6643 7.44364 10.6839C7.46105 10.7036 7.46963 10.7367 7.46963 10.7834C7.46963 10.7877 7.46963 10.7956 7.46938 10.8076H7.31923C7.31873 10.7933 7.31747 10.7834 7.3157 10.7783C7.31393 10.7729 7.31015 10.7688 7.3046 10.7655C7.29778 10.7614 7.28617 10.7589 7.26927 10.7579C7.25236 10.7568 7.21653 10.7561 7.16202 10.7561C7.09616 10.7561 7.05604 10.7581 7.04165 10.7622C7.02727 10.7663 7.01995 10.7777 7.01995 10.7966C7.01995 10.8147 7.02727 10.8257 7.04165 10.8297C7.05351 10.8331 7.10827 10.8361 7.20593 10.8392C7.28819 10.8417 7.3432 10.8445 7.37071 10.8481C7.39847 10.8514 7.42042 10.858 7.43682 10.8675C7.4555 10.8787 7.46862 10.8942 7.47644 10.9139C7.48401 10.9335 7.48805 10.9618 7.48805 10.9988C7.48805 11.0472 7.48149 11.0831 7.46862 11.1068C7.45903 11.1242 7.4454 11.1372 7.42824 11.1456C7.41108 11.1543 7.38661 11.1599 7.35532 11.1629C7.32176 11.166 7.25943 11.1675 7.16783 11.1675C7.09136 11.1675 7.03484 11.1655 6.99825 11.1616C6.96166 11.1576 6.93441 11.1504 6.91599 11.1402C6.89681 11.1293 6.88369 11.1147 6.87637 11.0966C6.86905 11.0785 6.86526 11.051 6.86526 11.0143V10.9896Z" fill="#DB2455"/>
</svg>
