<svg width="62" height="20" viewBox="0 0 62 20" fill="none" xmlns="http://www.w3.org/2000/svg">
<path d="M25.1691 16.0996V17.1019H25.0859C25.0234 16.8403 24.9068 16.6398 24.7362 16.5005C24.5656 16.3612 24.3722 16.2915 24.1561 16.2915C23.9756 16.2915 23.81 16.3434 23.6593 16.4472C23.5086 16.551 23.3984 16.6867 23.3287 16.8545C23.2392 17.0692 23.1944 17.308 23.1944 17.571C23.1944 17.8298 23.2271 18.0658 23.2925 18.279C23.3579 18.4908 23.4602 18.6515 23.5996 18.7609C23.7389 18.869 23.9194 18.923 24.1412 18.923C24.3232 18.923 24.4895 18.8832 24.6402 18.8036C24.7923 18.724 24.9523 18.5868 25.12 18.392V18.6415C24.958 18.8107 24.7888 18.9337 24.6125 19.0104C24.4376 19.0858 24.2329 19.1235 23.9983 19.1235C23.6898 19.1235 23.4155 19.0616 23.1752 18.9379C22.9364 18.8143 22.7515 18.6366 22.6208 18.4048C22.4914 18.1731 22.4267 17.9264 22.4267 17.6648C22.4267 17.389 22.4985 17.1275 22.6421 16.8801C22.7871 16.6327 22.9819 16.4408 23.2264 16.3043C23.4723 16.1678 23.7332 16.0996 24.009 16.0996C24.2123 16.0996 24.427 16.1437 24.653 16.2318C24.7838 16.283 24.867 16.3086 24.9025 16.3086C24.948 16.3086 24.9871 16.2922 25.0198 16.2595C25.0539 16.2254 25.076 16.1721 25.0859 16.0996H25.1691Z" fill="#B2B2B2"/>
<path d="M26.4103 17.0038C26.5837 17.0038 26.7451 17.0486 26.8943 17.1381C27.0436 17.2277 27.1566 17.3549 27.2334 17.5198C27.3116 17.6848 27.3507 17.8653 27.3507 18.0615C27.3507 18.3444 27.2789 18.5811 27.1353 18.7716C26.9619 19.0019 26.7223 19.1171 26.4167 19.1171C26.1167 19.1171 25.8857 19.0119 25.7236 18.8015C25.5615 18.5911 25.4805 18.3472 25.4805 18.07C25.4805 17.7843 25.563 17.5355 25.7279 17.3237C25.8942 17.1104 26.1217 17.0038 26.4103 17.0038ZM26.4188 17.1552C26.3463 17.1552 26.2837 17.1829 26.2311 17.2384C26.18 17.2924 26.1458 17.4004 26.1288 17.5625C26.1131 17.7231 26.1053 17.947 26.1053 18.2342C26.1053 18.3863 26.1153 18.5285 26.1352 18.6607C26.1508 18.7617 26.1842 18.8384 26.2354 18.891C26.2866 18.9436 26.3449 18.9699 26.4103 18.9699C26.4742 18.9699 26.5276 18.9522 26.5702 18.9166C26.6256 18.8683 26.6626 18.8008 26.6811 18.714C26.7095 18.579 26.7237 18.306 26.7237 17.8952C26.7237 17.6535 26.7102 17.4879 26.6832 17.3983C26.6562 17.3073 26.6164 17.2412 26.5638 17.2C26.5268 17.1701 26.4785 17.1552 26.4188 17.1552Z" fill="#B2B2B2"/>
<path d="M28.3936 17.0635V17.3258C28.503 17.2064 28.604 17.1232 28.6964 17.0763C28.7902 17.0279 28.8926 17.0038 29.0035 17.0038C29.1314 17.0038 29.2387 17.0336 29.3255 17.0933C29.4122 17.1531 29.479 17.244 29.5259 17.3663C29.6396 17.2384 29.7484 17.1459 29.8522 17.0891C29.9574 17.0322 30.0669 17.0038 30.1806 17.0038C30.3185 17.0038 30.428 17.0358 30.509 17.0997C30.5914 17.1623 30.6483 17.2426 30.6796 17.3407C30.7123 17.4374 30.7286 17.5923 30.7286 17.8056V18.6223C30.7286 18.7759 30.7421 18.8711 30.7692 18.9081C30.7976 18.9451 30.8559 18.9692 30.944 18.9806V19.0574H29.914V18.9806C29.9951 18.9735 30.0548 18.9422 30.0932 18.8868C30.1187 18.8484 30.1315 18.7602 30.1315 18.6223V17.7651C30.1315 17.5874 30.1244 17.4743 30.1102 17.426C30.096 17.3777 30.0733 17.3421 30.042 17.3194C30.0121 17.2952 29.9766 17.2831 29.9353 17.2831C29.8742 17.2831 29.8124 17.3059 29.7498 17.3514C29.6873 17.3954 29.624 17.4623 29.56 17.5518V18.6223C29.56 18.7659 29.5721 18.8562 29.5963 18.8932C29.629 18.9458 29.6915 18.9749 29.7839 18.9806V19.0574H28.7518V18.9806C28.8073 18.9778 28.8506 18.9642 28.8819 18.9401C28.9146 18.9145 28.9359 18.8846 28.9459 18.8505C28.9572 18.815 28.9629 18.7389 28.9629 18.6223V17.7651C28.9629 17.5845 28.9558 17.4715 28.9416 17.426C28.9274 17.3805 28.9032 17.345 28.8691 17.3194C28.8364 17.2938 28.8009 17.281 28.7625 17.281C28.7056 17.281 28.6537 17.2959 28.6068 17.3258C28.54 17.3699 28.4689 17.4452 28.3936 17.5518V18.6223C28.3936 18.7631 28.4071 18.8562 28.4341 18.9017C28.4625 18.9458 28.5208 18.9721 28.6089 18.9806V19.0574H27.5811V18.9806C27.665 18.9721 27.7247 18.9451 27.7602 18.8996C27.7844 18.8683 27.7965 18.7759 27.7965 18.6223V17.4964C27.7965 17.3457 27.7822 17.2519 27.7538 17.2149C27.7268 17.1779 27.6692 17.1538 27.5811 17.1424V17.0635H28.3936Z" fill="#B2B2B2"/>
<path d="M31.8888 18.8548V19.5969C31.8888 19.6992 31.8966 19.7689 31.9122 19.8059C31.9293 19.8428 31.9549 19.8698 31.989 19.8869C32.0231 19.904 32.09 19.9125 32.1895 19.9125V19.9914H31.0529V19.9125C31.141 19.9096 31.2064 19.8848 31.249 19.8379C31.2775 19.8052 31.2917 19.7206 31.2917 19.5841V17.4793C31.2917 17.3386 31.2753 17.249 31.2426 17.2106C31.2099 17.1708 31.1467 17.1481 31.0529 17.1424V17.0635H31.8888V17.3258C31.9585 17.2234 32.0295 17.1495 32.102 17.104C32.2058 17.0372 32.3188 17.0038 32.4411 17.0038C32.5875 17.0038 32.7205 17.05 32.8399 17.1424C32.9607 17.2348 33.0524 17.3627 33.115 17.5262C33.1775 17.6883 33.2088 17.8632 33.2088 18.0508C33.2088 18.2527 33.1761 18.4375 33.1107 18.6053C33.0467 18.7716 32.9529 18.8988 32.8292 18.987C32.707 19.0737 32.5705 19.1171 32.4198 19.1171C32.3103 19.1171 32.208 19.0929 32.1127 19.0446C32.0416 19.0076 31.967 18.9443 31.8888 18.8548ZM31.8888 18.6394C32.0111 18.8128 32.1418 18.8996 32.2812 18.8996C32.3579 18.8996 32.4212 18.859 32.471 18.778C32.5449 18.6586 32.5818 18.4311 32.5818 18.0956C32.5818 17.7516 32.5413 17.5163 32.4603 17.3898C32.4063 17.3059 32.3338 17.2639 32.2428 17.2639C32.0992 17.2639 31.9812 17.3677 31.8888 17.5753V18.6394Z" fill="#B2B2B2"/>
<path d="M34.5609 18.7631C34.3178 18.9778 34.0996 19.0851 33.9062 19.0851C33.7925 19.0851 33.6979 19.0481 33.6226 18.9742C33.5472 18.8988 33.5096 18.805 33.5096 18.6927C33.5096 18.5406 33.575 18.4041 33.7058 18.2833C33.8365 18.161 34.1216 17.9989 34.5609 17.7971V17.5966C34.5609 17.4459 34.5524 17.3514 34.5353 17.313C34.5197 17.2732 34.4891 17.2391 34.4436 17.2106C34.3981 17.1808 34.3469 17.1658 34.2901 17.1658C34.1976 17.1658 34.1216 17.1865 34.0619 17.2277C34.0249 17.2533 34.0064 17.2831 34.0064 17.3173C34.0064 17.3471 34.0263 17.3841 34.0661 17.4281C34.1202 17.4893 34.1472 17.5483 34.1472 17.6051C34.1472 17.6748 34.1209 17.7345 34.0683 17.7843C34.0171 17.8326 33.9496 17.8568 33.8657 17.8568C33.7761 17.8568 33.7008 17.8298 33.6396 17.7757C33.5799 17.7217 33.5501 17.6585 33.5501 17.5859C33.5501 17.4836 33.5906 17.3862 33.6716 17.2938C33.7527 17.2 33.8657 17.1282 34.0107 17.0784C34.1557 17.0287 34.3064 17.0038 34.4628 17.0038C34.6519 17.0038 34.8011 17.0443 34.9106 17.1253C35.0215 17.2049 35.0933 17.2917 35.126 17.3855C35.1459 17.4452 35.1558 17.5824 35.1558 17.7971V18.5712C35.1558 18.6621 35.1594 18.7197 35.1665 18.7439C35.1736 18.7666 35.1843 18.7837 35.1985 18.7951C35.2127 18.8064 35.2291 18.8121 35.2475 18.8121C35.2845 18.8121 35.3222 18.7858 35.3606 18.7332L35.4245 18.7844C35.3535 18.8896 35.2795 18.9664 35.2028 19.0147C35.1274 19.0616 35.0414 19.0851 34.9447 19.0851C34.831 19.0851 34.7421 19.0588 34.6782 19.0062C34.6142 18.9522 34.5751 18.8711 34.5609 18.7631ZM34.5609 18.6074V17.9399C34.3889 18.0409 34.2609 18.1489 34.177 18.2641C34.1216 18.3408 34.0939 18.4183 34.0939 18.4965C34.0939 18.5619 34.1173 18.6195 34.1642 18.6693C34.1998 18.7076 34.2495 18.7268 34.3135 18.7268C34.3846 18.7268 34.4671 18.687 34.5609 18.6074Z" fill="#B2B2B2"/>
<path d="M36.3714 17.0635V17.3215C36.4738 17.2106 36.5719 17.1303 36.6657 17.0805C36.7596 17.0294 36.8605 17.0038 36.9685 17.0038C37.0979 17.0038 37.2052 17.04 37.2905 17.1125C37.3758 17.1836 37.4327 17.2725 37.4611 17.3791C37.4839 17.4601 37.4953 17.6158 37.4953 17.8461V18.6223C37.4953 18.7759 37.5088 18.8718 37.5358 18.9102C37.5642 18.9472 37.6225 18.9706 37.7106 18.9806V19.0574H36.702V18.9806C36.7773 18.9706 36.8314 18.9394 36.8641 18.8868C36.8868 18.8512 36.8982 18.7631 36.8982 18.6223V17.7352C36.8982 17.5717 36.8918 17.4687 36.879 17.426C36.8662 17.3834 36.8441 17.3507 36.8129 17.3279C36.783 17.3037 36.7496 17.2917 36.7126 17.2917C36.5904 17.2917 36.4766 17.3791 36.3714 17.554V18.6223C36.3714 18.7716 36.385 18.8662 36.412 18.906C36.4404 18.9458 36.4923 18.9706 36.5676 18.9806V19.0574H35.559V18.9806C35.6428 18.9721 35.7026 18.9451 35.7381 18.8996C35.7623 18.8683 35.7744 18.7759 35.7744 18.6223V17.4964C35.7744 17.3457 35.7601 17.2519 35.7317 17.2149C35.7047 17.1779 35.6471 17.1538 35.559 17.1424V17.0635H36.3714ZM37.1818 16.1359H37.2948C37.2962 16.1643 37.2969 16.1885 37.2969 16.2084C37.2969 16.3647 37.2529 16.4906 37.1647 16.5858C37.0766 16.6811 36.97 16.7287 36.8449 16.7287C36.7525 16.7287 36.6359 16.6953 36.4951 16.6285C36.3558 16.5616 36.2627 16.5282 36.2158 16.5282C36.1731 16.5282 36.1376 16.5425 36.1092 16.5709C36.0807 16.5993 36.0608 16.6505 36.0494 16.7244H35.9258C35.9201 16.5396 35.962 16.3946 36.0516 16.2894C36.1426 16.1842 36.2542 16.1316 36.3864 16.1316C36.429 16.1316 36.4646 16.1359 36.493 16.1444C36.5328 16.1558 36.601 16.1842 36.6977 16.2297C36.8441 16.2965 36.9486 16.3299 37.0112 16.3299C37.0425 16.3299 37.0723 16.3171 37.1008 16.2915C37.1292 16.2659 37.1562 16.214 37.1818 16.1359Z" fill="#B2B2B2"/>
<path d="M38.3803 16.0975C38.4727 16.0975 38.5509 16.1302 38.6149 16.1956C38.6789 16.2595 38.7109 16.337 38.7109 16.428C38.7109 16.519 38.6782 16.5965 38.6128 16.6604C38.5488 16.7244 38.4713 16.7564 38.3803 16.7564C38.2893 16.7564 38.2119 16.7244 38.1479 16.6604C38.0839 16.5965 38.0519 16.519 38.0519 16.428C38.0519 16.337 38.0839 16.2595 38.1479 16.1956C38.2119 16.1302 38.2893 16.0975 38.3803 16.0975ZM38.6789 17.0635V18.6437C38.6789 18.7844 38.6952 18.8747 38.7279 18.9145C38.7606 18.9529 38.8246 18.9749 38.9199 18.9806V19.0574H37.8429V18.9806C37.9311 18.9778 37.9965 18.9522 38.0391 18.9038C38.0676 18.8711 38.0818 18.7844 38.0818 18.6437V17.4793C38.0818 17.3386 38.0654 17.249 38.0327 17.2106C38 17.1708 37.9368 17.1481 37.8429 17.1424V17.0635H38.6789Z" fill="#B2B2B2"/>
<path d="M40.1291 18.7631C39.886 18.9778 39.6677 19.0851 39.4744 19.0851C39.3606 19.0851 39.2661 19.0481 39.1908 18.9742C39.1154 18.8988 39.0777 18.805 39.0777 18.6927C39.0777 18.5406 39.1431 18.4041 39.2739 18.2833C39.4047 18.161 39.6898 17.9989 40.1291 17.7971V17.5966C40.1291 17.4459 40.1205 17.3514 40.1035 17.313C40.0878 17.2732 40.0573 17.2391 40.0118 17.2106C39.9663 17.1808 39.9151 17.1658 39.8582 17.1658C39.7658 17.1658 39.6898 17.1865 39.6301 17.2277C39.5931 17.2533 39.5746 17.2831 39.5746 17.3173C39.5746 17.3471 39.5945 17.3841 39.6343 17.4281C39.6883 17.4893 39.7154 17.5483 39.7154 17.6051C39.7154 17.6748 39.6891 17.7345 39.6365 17.7843C39.5853 17.8326 39.5177 17.8568 39.4339 17.8568C39.3443 17.8568 39.269 17.8298 39.2078 17.7757C39.1481 17.7217 39.1183 17.6585 39.1183 17.5859C39.1183 17.4836 39.1588 17.3862 39.2398 17.2938C39.3208 17.2 39.4339 17.1282 39.5789 17.0784C39.7239 17.0287 39.8746 17.0038 40.031 17.0038C40.22 17.0038 40.3693 17.0443 40.4788 17.1253C40.5897 17.2049 40.6615 17.2917 40.6942 17.3855C40.7141 17.4452 40.724 17.5824 40.724 17.7971V18.5712C40.724 18.6621 40.7276 18.7197 40.7347 18.7439C40.7418 18.7666 40.7525 18.7837 40.7667 18.7951C40.7809 18.8064 40.7972 18.8121 40.8157 18.8121C40.8527 18.8121 40.8904 18.7858 40.9287 18.7332L40.9927 18.7844C40.9216 18.8896 40.8477 18.9664 40.7709 19.0147C40.6956 19.0616 40.6096 19.0851 40.5129 19.0851C40.3992 19.0851 40.3103 19.0588 40.2463 19.0062C40.1824 18.9522 40.1433 18.8711 40.1291 18.7631ZM40.1291 18.6074V17.9399C39.957 18.0409 39.8291 18.1489 39.7452 18.2641C39.6898 18.3408 39.662 18.4183 39.662 18.4965C39.662 18.5619 39.6855 18.6195 39.7324 18.6693C39.768 18.7076 39.8177 18.7268 39.8817 18.7268C39.9528 18.7268 40.0352 18.687 40.1291 18.6074Z" fill="#B2B2B2"/>
<path d="M44.0679 16.1657V18.4603C44.0679 18.6152 44.0722 18.7069 44.0807 18.7354C44.0921 18.7823 44.1134 18.8171 44.1447 18.8398C44.1774 18.8626 44.2336 18.8768 44.3132 18.8825V18.9529L43.4708 19.1171V18.8015C43.3699 18.9237 43.2796 19.0069 43.2 19.051C43.1218 19.095 43.033 19.1171 42.9334 19.1171C42.679 19.1171 42.4778 19.0033 42.33 18.7759C42.2105 18.5911 42.1508 18.3643 42.1508 18.0956C42.1508 17.8809 42.1878 17.689 42.2617 17.5198C42.3356 17.3492 42.4366 17.2206 42.5645 17.1339C42.6939 17.0471 42.8325 17.0038 42.9804 17.0038C43.0756 17.0038 43.1602 17.0223 43.2341 17.0592C43.3081 17.0962 43.387 17.1609 43.4708 17.2533V16.6519C43.4708 16.4998 43.4644 16.4081 43.4516 16.3768C43.4346 16.3356 43.409 16.305 43.3749 16.2851C43.3407 16.2652 43.2768 16.2553 43.1829 16.2553V16.1657H44.0679ZM43.4708 17.5177C43.3656 17.3158 43.237 17.2149 43.0849 17.2149C43.0322 17.2149 42.9889 17.2291 42.9548 17.2575C42.9022 17.3016 42.8588 17.3791 42.8247 17.49C42.792 17.6009 42.7756 17.7708 42.7756 17.9997C42.7756 18.2513 42.7941 18.4375 42.8311 18.5584C42.868 18.6792 42.9185 18.7666 42.9825 18.8207C43.0152 18.8477 43.06 18.8612 43.1168 18.8612C43.2419 18.8612 43.3599 18.7631 43.4708 18.5669V17.5177Z" fill="#B2B2B2"/>
<path d="M46.1621 17.989H45.0681C45.0809 18.2534 45.1513 18.4624 45.2793 18.6159C45.3774 18.7339 45.4954 18.7929 45.6333 18.7929C45.7186 18.7929 45.796 18.7695 45.8657 18.7226C45.9354 18.6742 46.01 18.5882 46.0896 18.4645L46.1621 18.5114C46.0541 18.7318 45.9346 18.8882 45.8039 18.9806C45.6731 19.0716 45.5217 19.1171 45.3496 19.1171C45.0539 19.1171 44.83 19.0033 44.6779 18.7759C44.5556 18.5925 44.4945 18.365 44.4945 18.0935C44.4945 17.7608 44.5841 17.4964 44.7632 17.3002C44.9438 17.1026 45.1549 17.0038 45.3966 17.0038C45.5984 17.0038 45.7733 17.0869 45.9211 17.2533C46.0704 17.4182 46.1507 17.6634 46.1621 17.989ZM45.6375 17.8461C45.6375 17.6172 45.6247 17.4601 45.5991 17.3748C45.575 17.2895 45.5366 17.2248 45.484 17.1808C45.4541 17.1552 45.4143 17.1424 45.3646 17.1424C45.2906 17.1424 45.2302 17.1786 45.1833 17.2511C45.0994 17.3777 45.0575 17.5511 45.0575 17.7715V17.8461H45.6375Z" fill="#B2B2B2"/>
<path d="M49.2352 16.0996L49.2587 17.0635H49.1712C49.13 16.8218 49.0283 16.6278 48.8663 16.4813C48.7056 16.3335 48.5315 16.2595 48.3438 16.2595C48.1988 16.2595 48.0837 16.2986 47.9984 16.3768C47.9145 16.4536 47.8725 16.5425 47.8725 16.6434C47.8725 16.7074 47.8875 16.7642 47.9173 16.814C47.9585 16.8808 48.0247 16.9469 48.1156 17.0123C48.1825 17.0592 48.3367 17.1424 48.5784 17.2618C48.9167 17.4281 49.1449 17.5852 49.2629 17.7331C49.3795 17.8809 49.4378 18.0501 49.4378 18.2406C49.4378 18.4823 49.3432 18.6906 49.1542 18.8654C48.9665 19.0389 48.7277 19.1256 48.4376 19.1256C48.3467 19.1256 48.2607 19.1164 48.1796 19.0979C48.0986 19.0794 47.9969 19.0446 47.8747 18.9934C47.8064 18.965 47.7503 18.9507 47.7062 18.9507C47.6692 18.9507 47.6301 18.965 47.5889 18.9934C47.5477 19.0218 47.5143 19.0652 47.4887 19.1235H47.4098V18.0316H47.4887C47.5512 18.3387 47.6714 18.5733 47.8491 18.7354C48.0282 18.896 48.2208 18.9763 48.427 18.9763C48.5862 18.9763 48.7127 18.933 48.8066 18.8462C48.9018 18.7595 48.9494 18.6586 48.9494 18.5434C48.9494 18.4752 48.931 18.4091 48.894 18.3451C48.8585 18.2811 48.8037 18.2207 48.7298 18.1639C48.6559 18.1056 48.5251 18.0302 48.3374 17.9378C48.0744 17.8084 47.8853 17.6983 47.7702 17.6073C47.655 17.5163 47.5662 17.4146 47.5036 17.3023C47.4425 17.19 47.4119 17.0663 47.4119 16.9313C47.4119 16.701 47.4965 16.5048 47.6657 16.3427C47.8349 16.1806 48.0481 16.0996 48.3054 16.0996C48.3993 16.0996 48.4902 16.111 48.5784 16.1337C48.6452 16.1508 48.7262 16.1828 48.8215 16.2297C48.9182 16.2752 48.9857 16.2979 49.0241 16.2979C49.061 16.2979 49.0902 16.2866 49.1115 16.2638C49.1328 16.2411 49.1527 16.1863 49.1712 16.0996H49.2352Z" fill="#B2B2B2"/>
<path d="M51.3635 17.989H50.2695C50.2823 18.2534 50.3527 18.4624 50.4807 18.6159C50.5787 18.7339 50.6967 18.7929 50.8346 18.7929C50.9199 18.7929 50.9974 18.7695 51.0671 18.7226C51.1367 18.6742 51.2114 18.5882 51.291 18.4645L51.3635 18.5114C51.2555 18.7318 51.136 18.8882 51.0052 18.9806C50.8745 19.0716 50.723 19.1171 50.551 19.1171C50.2553 19.1171 50.0314 19.0033 49.8793 18.7759C49.757 18.5925 49.6959 18.365 49.6959 18.0935C49.6959 17.7608 49.7855 17.4964 49.9646 17.3002C50.1451 17.1026 50.3563 17.0038 50.5979 17.0038C50.7998 17.0038 50.9747 17.0869 51.1225 17.2533C51.2718 17.4182 51.3521 17.6634 51.3635 17.989ZM50.8389 17.8461C50.8389 17.6172 50.8261 17.4601 50.8005 17.3748C50.7764 17.2895 50.738 17.2248 50.6854 17.1808C50.6555 17.1552 50.6157 17.1424 50.566 17.1424C50.492 17.1424 50.4316 17.1786 50.3847 17.2511C50.3008 17.3777 50.2589 17.5511 50.2589 17.7715V17.8461H50.8389Z" fill="#B2B2B2"/>
<path d="M52.8073 17.0869H53.479V17.3215H53.0973C53.167 17.3912 53.2153 17.4544 53.2423 17.5113C53.2764 17.5881 53.2935 17.6684 53.2935 17.7523C53.2935 17.8944 53.2537 18.0181 53.1741 18.1233C53.0959 18.2271 52.9885 18.3089 52.8521 18.3686C52.717 18.4269 52.5969 18.456 52.4917 18.456C52.4831 18.456 52.3978 18.4524 52.2358 18.4453C52.1718 18.4453 52.1178 18.4667 52.0737 18.5093C52.0311 18.5505 52.0097 18.6003 52.0097 18.6586C52.0097 18.7098 52.0289 18.7517 52.0673 18.7844C52.1071 18.8171 52.1711 18.8335 52.2592 18.8335L52.6281 18.8292C52.9267 18.8292 53.1321 18.8619 53.2444 18.9273C53.4051 19.0183 53.4854 19.1583 53.4854 19.3474C53.4854 19.4682 53.4484 19.5777 53.3745 19.6758C53.3006 19.7753 53.2032 19.8485 53.0824 19.8954C52.899 19.9651 52.6879 19.9999 52.449 19.9999C52.2699 19.9999 52.1064 19.9822 51.9585 19.9466C51.8107 19.9125 51.7048 19.8642 51.6408 19.8016C51.5768 19.7405 51.5448 19.6758 51.5448 19.6075C51.5448 19.5421 51.569 19.4831 51.6174 19.4305C51.6671 19.3794 51.7588 19.336 51.8924 19.3005C51.7076 19.2095 51.6152 19.083 51.6152 18.9209C51.6152 18.8228 51.6529 18.7275 51.7282 18.6351C51.8036 18.5427 51.923 18.4624 52.0865 18.3942C51.896 18.3245 51.7581 18.2328 51.6728 18.1191C51.5875 18.0053 51.5448 17.8738 51.5448 17.7246C51.5448 17.5298 51.6245 17.3613 51.7837 17.2192C51.9429 17.0756 52.1476 17.0038 52.3978 17.0038C52.5301 17.0038 52.6665 17.0315 52.8073 17.0869ZM52.4384 17.136C52.3559 17.136 52.2862 17.1779 52.2294 17.2618C52.1725 17.3443 52.1441 17.5163 52.1441 17.7779C52.1441 17.9897 52.1718 18.1354 52.2272 18.215C52.2841 18.2932 52.3509 18.3323 52.4277 18.3323C52.513 18.3323 52.5841 18.2932 52.6409 18.215C52.6978 18.1368 52.7262 17.9847 52.7262 17.7587C52.7262 17.5042 52.6943 17.3308 52.6303 17.2384C52.5848 17.1701 52.5208 17.136 52.4384 17.136ZM52.3125 19.3516C52.1675 19.3516 52.0716 19.3637 52.0247 19.3879C51.9436 19.432 51.9031 19.4917 51.9031 19.567C51.9031 19.6395 51.945 19.7049 52.0289 19.7632C52.1128 19.8229 52.2706 19.8528 52.5023 19.8528C52.6999 19.8528 52.8549 19.8265 52.9672 19.7739C53.0809 19.7213 53.1378 19.6474 53.1378 19.5521C53.1378 19.5166 53.1272 19.4867 53.1058 19.4625C53.0674 19.4199 53.0092 19.3907 52.931 19.3751C52.8542 19.3595 52.6481 19.3516 52.3125 19.3516Z" fill="#B2B2B2"/>
<path d="M55.5497 17.0635V18.6245C55.5497 18.7766 55.564 18.8718 55.5924 18.9102C55.6208 18.9472 55.6784 18.9706 55.7651 18.9806V19.0574H54.9526V18.7908C54.8574 18.9045 54.7621 18.9877 54.6669 19.0403C54.5716 19.0915 54.465 19.1171 54.347 19.1171C54.2347 19.1171 54.1345 19.083 54.0463 19.0147C53.9596 18.9451 53.9013 18.864 53.8715 18.7716C53.8416 18.6792 53.8267 18.5178 53.8267 18.2875V17.4964C53.8267 17.3457 53.8125 17.2519 53.784 17.2149C53.757 17.1779 53.6995 17.1538 53.6113 17.1424V17.0635H54.4238V18.4261C54.4238 18.5683 54.4302 18.66 54.443 18.7012C54.4572 18.7425 54.4785 18.7737 54.507 18.7951C54.5368 18.8164 54.5709 18.8271 54.6093 18.8271C54.6605 18.8271 54.7067 18.8135 54.7479 18.7865C54.8048 18.7496 54.873 18.6749 54.9526 18.5626V17.4964C54.9526 17.3457 54.9384 17.2519 54.91 17.2149C54.883 17.1779 54.8254 17.1538 54.7373 17.1424V17.0635H55.5497Z" fill="#B2B2B2"/>
<path d="M56.7952 17.0635V17.5156C56.9274 17.3094 57.0433 17.173 57.1428 17.1061C57.2423 17.0379 57.3383 17.0038 57.4307 17.0038C57.5103 17.0038 57.5736 17.0287 57.6205 17.0784C57.6688 17.1268 57.693 17.1957 57.693 17.2853C57.693 17.3805 57.6695 17.4544 57.6226 17.507C57.5771 17.5596 57.5217 17.5859 57.4563 17.5859C57.3809 17.5859 57.3155 17.5618 57.2601 17.5134C57.2046 17.4651 57.1719 17.4381 57.162 17.4324C57.1478 17.4239 57.1314 17.4196 57.1129 17.4196C57.0717 17.4196 57.0326 17.4353 56.9957 17.4665C56.9374 17.5149 56.8933 17.5838 56.8634 17.6734C56.8179 17.8113 56.7952 17.9634 56.7952 18.1297V18.5882L56.7973 18.7076C56.7973 18.7887 56.8023 18.8406 56.8123 18.8633C56.8293 18.9017 56.8542 18.9301 56.8869 18.9486C56.921 18.9657 56.9779 18.9763 57.0575 18.9806V19.0574H55.9806V18.9806C56.0673 18.9735 56.1256 18.95 56.1555 18.9102C56.1867 18.869 56.2024 18.7617 56.2024 18.5882V17.4857C56.2024 17.372 56.1967 17.2995 56.1853 17.2682C56.1711 17.2284 56.1505 17.1993 56.1235 17.1808C56.0965 17.1623 56.0488 17.1495 55.9806 17.1424V17.0635H56.7952Z" fill="#B2B2B2"/>
<path d="M58.6804 17.0038C58.8538 17.0038 59.0152 17.0486 59.1645 17.1381C59.3137 17.2277 59.4268 17.3549 59.5035 17.5198C59.5817 17.6848 59.6208 17.8653 59.6208 18.0615C59.6208 18.3444 59.549 18.5811 59.4054 18.7716C59.232 19.0019 58.9925 19.1171 58.6868 19.1171C58.3868 19.1171 58.1558 19.0119 57.9937 18.8015C57.8317 18.5911 57.7506 18.3472 57.7506 18.07C57.7506 17.7843 57.8331 17.5355 57.998 17.3237C58.1643 17.1104 58.3918 17.0038 58.6804 17.0038ZM58.6889 17.1552C58.6164 17.1552 58.5539 17.1829 58.5013 17.2384C58.4501 17.2924 58.416 17.4004 58.3989 17.5625C58.3833 17.7231 58.3755 17.947 58.3755 18.2342C58.3755 18.3863 58.3854 18.5285 58.4053 18.6607C58.4209 18.7617 58.4544 18.8384 58.5055 18.891C58.5567 18.9436 58.615 18.9699 58.6804 18.9699C58.7444 18.9699 58.7977 18.9522 58.8403 18.9166C58.8958 18.8683 58.9327 18.8008 58.9512 18.714C58.9797 18.579 58.9939 18.306 58.9939 17.8952C58.9939 17.6535 58.9804 17.4879 58.9534 17.3983C58.9263 17.3073 58.8865 17.2412 58.8339 17.2C58.797 17.1701 58.7486 17.1552 58.6889 17.1552Z" fill="#B2B2B2"/>
<path d="M61.0966 17.008L61.1286 17.6883H61.0561C60.9694 17.4864 60.8791 17.3485 60.7852 17.2746C60.6928 17.2007 60.6004 17.1637 60.508 17.1637C60.4497 17.1637 60.4 17.1836 60.3588 17.2234C60.3175 17.2618 60.2969 17.3066 60.2969 17.3578C60.2969 17.3962 60.3111 17.4331 60.3396 17.4687C60.3851 17.5269 60.5123 17.6272 60.7213 17.7693C60.9303 17.9101 61.0674 18.0302 61.1328 18.1297C61.1997 18.2278 61.2331 18.338 61.2331 18.4603C61.2331 18.5712 61.2053 18.6799 61.1499 18.7865C61.0945 18.8932 61.0163 18.9749 60.9153 19.0318C60.8144 19.0886 60.7028 19.1171 60.5805 19.1171C60.4853 19.1171 60.358 19.0872 60.1988 19.0275C60.1562 19.0119 60.127 19.0041 60.1114 19.0041C60.0645 19.0041 60.0254 19.0396 59.9941 19.1107H59.9237L59.8896 18.3942H59.9621C60.0261 18.5818 60.1135 18.7226 60.2244 18.8164C60.3367 18.9102 60.4426 18.9571 60.5421 18.9571C60.6104 18.9571 60.6658 18.9365 60.7085 18.8953C60.7526 18.8526 60.7746 18.8015 60.7746 18.7418C60.7746 18.6735 60.7533 18.6145 60.7106 18.5648C60.668 18.515 60.5727 18.4397 60.4249 18.3387C60.2073 18.188 60.0666 18.0729 60.0026 17.9933C59.9088 17.8767 59.8619 17.748 59.8619 17.6073C59.8619 17.4537 59.9145 17.3151 60.0197 17.1914C60.1263 17.0663 60.2799 17.0038 60.4803 17.0038C60.5883 17.0038 60.6928 17.0301 60.7938 17.0827C60.8322 17.104 60.8634 17.1147 60.8876 17.1147C60.9132 17.1147 60.9338 17.1097 60.9495 17.0997C60.9651 17.0884 60.99 17.0578 61.0241 17.008H61.0966Z" fill="#B2B2B2"/>
<path fill-rule="evenodd" clip-rule="evenodd" d="M9.69957 1.70954C13.25 1.70954 16.1453 4.10741 16.1453 7.04738C16.1453 9.98735 13.2496 12.3852 9.69957 12.3852C6.14915 12.3848 3.2538 9.98697 3.2538 7.04738C3.2538 4.10779 6.14915 1.70954 9.69957 1.70954ZM18.6964 19.4425H19.1464V19.8941H18.6964V19.4425ZM17.1637 19.4425H17.6137V19.8941H17.1637V19.4425ZM15.6314 19.4425H16.0814V19.8941H15.6314V19.4425ZM14.0987 19.4425H14.5487V19.8941H14.0987V19.4425ZM12.5664 19.4425H13.0164V19.8941H12.5664V19.4425ZM11.0337 19.4425H11.4837V19.8941H11.0337V19.4425ZM9.50137 19.4425H9.9514V19.8941H9.50137V19.4425ZM7.96867 19.4425H8.41871V19.8941H7.96867V19.4425ZM6.43636 19.4425H6.88639V19.8941H6.43636V19.4425ZM4.90366 19.4425H5.3537V19.8941H4.90366V19.4425ZM3.37135 19.4425H3.82138V19.8941H3.37135V19.4425ZM1.83865 19.4425H2.28868V19.8941H1.83865V19.4425ZM0.306336 19.4425H0.756369V19.8941H0.306336V19.4425ZM0.643005 0.624949H18.852V18.0789H0.643005V0.624949ZM0.0202637 0H19.4747V18.7038H0.0202637V0ZM9.66153 2.56546C11.5701 2.56546 13.1313 4.13261 13.1313 6.04754V7.90291C13.1313 9.81823 11.5697 11.385 9.66153 11.385C7.75298 11.385 6.19175 9.81785 6.19175 7.90291V6.04754C6.19175 4.13261 7.75298 2.56546 9.66153 2.56546ZM4.24136 11.7496C4.92535 12.0802 9.00303 13.8848 9.73761 13.9863C10.4722 14.0879 12.0171 14.4948 13.7647 14.0119C15.5123 13.529 15.4868 13.1224 15.9681 13.1224C16.4493 13.1224 16.4999 13.4274 16.2975 13.7325C16.0947 14.0375 14.7777 14.9018 14.3981 15.3084C14.018 15.715 13.1572 16.6049 12.9289 16.7828C12.701 16.9607 12.1183 17.4436 10.9534 16.6301C9.7882 15.8165 7.17969 14.2154 6.11567 13.6561C5.05203 13.0968 3.63345 12.4616 3.3801 12.3344C3.12674 12.2073 2.97495 12.055 3.15223 11.7244C3.3295 11.3938 3.55775 11.419 4.24136 11.7496Z" fill="#B2B2B2"/>
<path fill-rule="evenodd" clip-rule="evenodd" d="M26.1768 1.47847C27.7815 1.47847 28.83 3.44465 28.83 6.58025C28.83 9.71585 27.7815 11.682 26.1768 11.682C24.5721 11.682 23.5362 9.61141 23.5362 6.58025C23.5362 3.54909 24.5721 1.47847 26.1768 1.47847ZM48.6472 4.77152C48.6228 5.06506 48.8176 5.04054 48.9399 5.04054C49.0622 5.04054 49.1853 5.04054 49.1853 5.04054V10.4683C49.1853 10.4683 49.1111 11.5689 49.6957 11.9597C50.2811 12.3506 50.7931 12.3997 51.3051 11.9597C51.8172 11.5198 51.8905 11.2018 51.8905 11.0309C51.8905 10.8599 51.7927 10.7373 51.5489 11.0063C51.3051 11.2753 51.0125 11.4462 50.7442 11.4217C50.476 11.3972 50.2567 11.2263 50.2567 10.4438C50.2567 9.66125 50.2567 5.04054 50.2567 5.04054H51.2081C51.2081 5.04054 51.6767 5.01126 51.6491 4.59825C51.6223 4.18523 51.3541 4.28255 51.1829 4.25881C51.0125 4.23429 50.2803 4.25881 50.2803 4.25881V3.03638C50.2803 3.03638 50.1099 2.45009 49.8661 2.89001C49.6223 3.32992 49.549 3.52615 49.3541 3.84342C49.1592 4.15991 48.6717 4.47798 48.6472 4.77152ZM38.7445 3.29353L39.0514 3.47313L40.6892 1.80524C40.6892 1.80524 41.3291 1.18968 41.2778 0.881102C41.2265 0.573317 40.9449 0.316961 40.7918 0.419028C40.638 0.521886 39.9476 1.47135 39.7425 1.80445C39.5374 2.13914 38.7445 3.29353 38.7445 3.29353ZM42.6 0.948353C42.5267 0.483117 43.2036 0.599427 43.4663 0.415073C43.7424 0.222015 43.8339 -0.029594 44.0793 0.00284595C44.3246 0.0352859 44.2773 0.346238 44.2773 0.510812C44.2773 0.675385 44.2773 11.0245 44.2773 11.0245C44.2773 11.0245 44.2773 11.2888 44.4919 11.3885C44.7057 11.4874 45.0355 11.5871 45.0355 11.686C45.0355 11.7849 44.9203 12.0333 44.6891 12.0333C44.4588 12.0333 44.211 11.9178 43.9641 11.9178C43.7172 11.9178 43.3874 11.951 43.1405 11.9835C42.8935 12.0167 42.4154 12.099 42.4154 11.7691C42.4154 11.4383 42.8935 11.4716 43.0253 11.3727C43.157 11.2738 43.2067 10.875 43.2067 10.6621C43.2067 10.4493 43.2067 1.49509 43.2067 1.49509C43.2067 1.49509 43.273 1.28225 43.0253 1.19996C42.7775 1.11846 42.645 1.2324 42.6 0.948353ZM45.624 5.4401C45.5578 5.20907 45.7226 5.19245 46.0359 4.96062C46.3491 4.72959 46.5463 4.59666 46.6946 4.39886C46.8429 4.20026 46.9084 4.00246 47.0899 4.03569C47.2713 4.06892 47.2879 4.38224 47.2879 4.54761C47.2879 4.71376 47.2879 11.0261 47.2879 11.0261C47.2879 11.0261 47.2879 11.2904 47.5017 11.3901C47.7163 11.489 48.0453 11.5887 48.0453 11.6876C48.0453 11.7865 47.9301 12.0349 47.6989 12.0349C47.4686 12.0349 47.2208 11.9194 46.9739 11.9194C46.727 11.9194 46.3972 11.9526 46.1502 11.9851C45.9033 12.0183 45.4252 12.1006 45.4252 11.7706C45.4252 11.4399 45.9033 11.4731 46.0351 11.3742C46.1668 11.2753 46.2165 10.8781 46.2165 10.6637C46.2165 10.4485 46.2165 5.9536 46.2165 5.9536C46.2165 5.9536 46.282 5.73918 46.0351 5.6561C45.7881 5.57224 45.6895 5.67114 45.624 5.4401ZM46.7143 0.41982C47.0457 0.41982 47.3155 0.82888 47.3155 1.33051C47.3155 1.83215 47.0457 2.24121 46.7143 2.24121C46.383 2.24121 46.1132 1.83215 46.1132 1.33051C46.1132 0.82888 46.383 0.41982 46.7143 0.41982ZM61.0587 5.94648C60.8623 5.94648 60.7022 5.60626 60.6485 5.26683C60.5949 4.9266 60.2383 4.47956 59.7744 4.46216C59.3105 4.44396 58.7929 4.73038 58.7756 5.49944C58.7574 6.26851 58.7401 6.50113 60.0773 7.3596C61.4153 8.21807 61.54 9.18415 61.5581 9.63119C61.5763 10.0782 61.469 11.2231 60.684 11.8316C59.899 12.44 59.1503 12.4044 58.4718 12.1354C57.7941 11.8672 57.6868 11.599 57.6868 11.0443C57.6868 10.4897 57.6868 10.0426 57.705 9.8638C57.7231 9.68499 57.8123 9.45237 57.9551 9.45237C58.0979 9.45237 58.2044 9.68499 58.258 10.0608C58.3117 10.4366 58.4718 11.6527 58.9712 11.7422C59.4706 11.8316 60.0418 11.796 60.3984 11.2951C60.755 10.7943 60.7195 9.54178 60.3093 9.11215C59.899 8.68252 58.7929 8.19987 58.3645 7.62703C57.9361 7.05419 57.8296 6.66095 57.8651 6.10631C57.9006 5.55166 58.0434 4.80001 58.7748 4.31736C59.5061 3.83472 60.2911 3.90593 60.5767 4.03094C60.8623 4.15596 61.2544 4.44238 61.237 4.87201C61.2189 5.30243 61.2552 5.94648 61.0587 5.94648ZM52.5272 6.77964C52.9193 6.99406 53.2223 6.4402 53.3643 6.10077C53.5071 5.76134 53.6846 5.06428 53.8629 4.92186C54.0412 4.77865 54.2905 4.43921 54.8782 4.51121C55.466 4.58242 55.2877 5.4401 55.2877 5.63712C55.2877 5.83334 55.2877 7.38808 55.2877 7.38808C55.2877 7.38808 54.2013 8.19196 53.8629 8.42458C53.5244 8.6572 52.8475 9.28226 52.5264 9.92552C52.2061 10.5688 52.1343 11.6053 52.7047 11.9803C53.2751 12.3554 53.7382 12.4274 54.4151 11.9447C55.092 11.4621 55.2167 11.087 55.4305 11.4977C55.6443 11.9083 55.6443 12.2477 56.1255 12.2303C56.6068 12.2121 56.8561 11.8553 56.9626 11.7121C57.0699 11.5689 57.3902 11.1226 57.23 10.962C57.0699 10.8014 56.9271 10.962 56.8379 11.1052C56.7488 11.2484 56.393 11.3378 56.3567 10.8726C56.2817 9.89466 56.3812 5.94648 56.2817 5.1972C56.2817 5.1972 56.1074 4.06496 55.2522 3.97556C54.397 3.88615 53.7019 4.15437 53.1678 4.81504C52.6337 5.47571 52.4728 5.76213 52.4018 5.95835C52.3308 6.15457 52.1351 6.56522 52.5272 6.77964ZM55.0297 8.17535C54.7339 8.37869 54.4246 8.58916 54.0238 8.97764C53.5055 9.47928 53.4179 9.74591 53.3824 10.2816C53.3469 10.8172 53.5071 11.4605 54.184 11.3355C54.8609 11.2105 54.9855 10.8884 55.1102 10.549C55.2348 10.2096 55.2885 9.85194 55.2885 9.5307C55.2885 9.30995 55.2885 8.66669 55.2885 8.28611C55.294 8.15794 55.1457 8.10414 55.0297 8.17535ZM37.1879 6.77964C37.58 6.99406 37.883 6.4402 38.025 6.10077C38.1678 5.76134 38.3453 5.06428 38.5236 4.92186C38.7019 4.77865 38.9512 4.43921 39.539 4.51121C40.1267 4.58242 39.9484 5.4401 39.9484 5.63712C39.9484 5.83334 39.9484 7.38808 39.9484 7.38808C39.9484 7.38808 38.8613 8.19196 38.5228 8.42458C38.1844 8.6572 37.5075 9.28226 37.1864 9.92552C36.8661 10.5688 36.7943 11.6053 37.3647 11.9803C37.9351 12.3554 38.3982 12.4274 39.0751 11.9447C39.752 11.4621 39.8766 11.087 40.0904 11.4977C40.3042 11.9083 40.3042 12.2477 40.7855 12.2303C41.2667 12.2121 41.516 11.8553 41.6225 11.7121C41.7291 11.5689 42.0501 11.1226 41.89 10.962C41.7298 10.8014 41.587 10.962 41.4979 11.1052C41.4087 11.2484 41.0521 11.3378 41.0166 10.8726C40.9417 9.89466 41.0411 5.94648 40.9417 5.1972C40.9417 5.1972 40.7673 4.06496 39.9121 3.97556C39.0569 3.88615 38.3619 4.15437 37.8278 4.81504C37.2937 5.47571 37.1327 5.76213 37.0617 5.95835C36.9915 6.15457 36.7958 6.56522 37.1879 6.77964ZM39.9492 7.99495C39.5682 8.27029 39.2029 8.47601 38.6846 8.97764C38.1662 9.47928 38.0787 9.74591 38.0431 10.2816C38.0076 10.8172 38.1678 11.4605 38.8447 11.3355C39.5216 11.2105 39.6463 10.8884 39.7709 10.549C39.8956 10.2096 39.9492 9.85194 39.9492 9.5307C39.9492 9.20947 39.9492 7.99495 39.9492 7.99495ZM30.4978 4.4946C30.5175 4.87438 30.6571 4.75491 30.7968 4.81504C30.9364 4.87517 31.2354 4.75491 31.2354 5.27553C31.2354 5.79536 31.2354 9.63752 31.2354 9.63752C31.2354 9.63752 31.2157 10.6582 31.6346 11.3782C32.0536 12.0982 32.6721 12.3182 33.1707 12.3182C33.6693 12.3182 34.1087 11.898 34.2081 11.758C34.3075 11.6179 34.7588 11.1195 34.799 11.5997C34.8393 12.08 34.8054 12.2177 35.046 12.2984C35.2866 12.3783 35.2282 12.1552 35.5328 11.9487C35.8373 11.7422 35.984 11.6179 36.1631 11.5776C36.343 11.5372 36.4976 11.1321 36.1552 11.0617C35.8128 10.9913 35.8041 10.8805 35.7836 10.4169C35.7639 9.95321 35.7836 4.69478 35.7836 4.69478C35.7836 4.69478 35.7434 4.31499 35.3844 4.27464C35.0255 4.23429 34.6065 4.27464 34.4267 4.27464C34.2468 4.27464 34.0677 4.41468 34.1072 4.57451C34.1474 4.73434 34.3462 4.77469 34.5458 4.91473C34.7454 5.05478 34.8054 5.23518 34.8054 5.51527C34.8054 5.79536 34.8054 9.53703 34.8054 9.53703C34.8054 9.53703 34.8251 10.2776 34.5064 10.7571C34.1868 11.2374 33.85 11.417 33.3695 11.417C32.889 11.417 32.3123 11.0372 32.2926 9.97616C32.2729 8.91593 32.2129 8.5757 32.2129 8.5757V4.71456C32.2129 4.71456 32.2137 4.29838 31.854 4.28413C31.6086 4.27464 31.1692 4.27384 30.8102 4.28492C30.635 4.29046 30.4915 4.36404 30.4978 4.4946ZM26.1381 12.4392C26.4371 12.8491 26.9531 13.7558 27.8769 14.278C28.8008 14.8002 29.5503 15.1919 30.6745 15.0621C31.7979 14.9324 32.4606 14.2408 32.807 13.8302C33.1533 13.4195 33.3111 13.1355 33.0587 12.8823C32.807 12.6299 32.4599 13.1031 32.0196 13.3879C31.5786 13.6719 31.095 13.8745 30.3187 13.8618C29.5424 13.8492 28.6264 13.577 28.0623 13.2613C27.4982 12.9456 27.0415 12.6315 26.8418 12.3617C28.8189 11.8909 30.1104 9.35822 30.1104 6.6119C30.1104 3.5665 28.5538 0.783778 26.1728 0.783778C23.7918 0.783778 22.1927 3.87586 22.2558 6.6119C22.3181 9.33369 23.8092 12.4084 26.1381 12.4392Z" fill="#B2B2B2"/>
</svg>
